<svg xmlns="http://www.w3.org/2000/svg" width="18.5" height="21.5" viewBox="0 0 18.5 21.5">
  <g id="Componente_226_3" data-name="Componente 226 – 3" transform="translate(1 1)">
    <path id="Trazado_22484" data-name="Trazado 22484" d="M15.75,17.25v3.375a1.125,1.125,0,0,1-1.125,1.125H4.875A1.125,1.125,0,0,1,3.75,20.625V7.875A1.125,1.125,0,0,1,4.875,6.75H6.75a9.06,9.06,0,0,1,1.5.124m7.5,10.376h3.375a1.125,1.125,0,0,0,1.125-1.125V11.25a8.988,8.988,0,0,0-9-9H9.375A1.125,1.125,0,0,0,8.25,3.375v3.5m7.5,10.375H9.375A1.125,1.125,0,0,1,8.25,16.125V6.875m12,6.625V11.625A3.375,3.375,0,0,0,16.875,8.25h-1.5A1.125,1.125,0,0,1,14.25,7.125v-1.5A3.375,3.375,0,0,0,10.875,2.25H9.75" transform="translate(-3.75 -2.25)" fill="none" stroke="#5bc5f2" stroke-linecap="round" stroke-linejoin="round" stroke-width="2"/>
  </g>
</svg>
