<svg xmlns="http://www.w3.org/2000/svg" width="25.567" height="23.85" viewBox="0 0 25.567 23.85">
  <g id="Componente_225_3" data-name="Componente 225 – 3" transform="translate(1 1)">
    <g id="Grupo_5307" data-name="Grupo 5307" transform="translate(0 4.58)">
      <path id="Trazado_22399" data-name="Trazado 22399" d="M4.919,11.635H3L11.635,3l8.635,8.635H18.351" transform="translate(-3 -3)" fill="none" stroke="#5bc5f2" stroke-linecap="round" stroke-linejoin="round" stroke-width="2"/>
      <path id="Trazado_22400" data-name="Trazado 22400" d="M5,12v6.716a1.919,1.919,0,0,0,1.919,1.919h9.594a1.919,1.919,0,0,0,1.919-1.919V12" transform="translate(-3.081 -3.365)" fill="none" stroke="#5bc5f2" stroke-linecap="round" stroke-linejoin="round" stroke-width="2"/>
      <path id="Trazado_22401" data-name="Trazado 22401" d="M9,20.675V14.919A1.919,1.919,0,0,1,10.919,13h1.919a1.919,1.919,0,0,1,1.919,1.919v5.757" transform="translate(-3.243 -3.406)" fill="none" stroke="#5bc5f2" stroke-linecap="round" stroke-linejoin="round" stroke-width="2"/>
    </g>
    <path id="Trazado_22402" data-name="Trazado 22402" d="M11.665,10.665a4.49,4.49,0,1,0-6.349,0L8.49,13.84l3.175-3.176Z" transform="translate(10.586 -2.999)" fill="none" stroke="#5bc5f2" stroke-linecap="round" stroke-linejoin="round" stroke-width="2"/>
    <line id="Línea_1275" data-name="Línea 1275" y2="0.011" transform="translate(19.074 4.492)" fill="none" stroke="#5bc5f2" stroke-linecap="round" stroke-linejoin="round" stroke-width="2"/>
  </g>
</svg>
