<svg xmlns="http://www.w3.org/2000/svg" width="17.414" height="20" viewBox="0 0 17.414 20">
  <g id="Componente_208_3" data-name="Componente 208 – 3" transform="translate(1.414 1)">
    <path id="Trazado_22469" data-name="Trazado 22469" d="M4,15l3,3,3-3" transform="translate(-4 -3)" fill="none" stroke="#5bc5f2" stroke-linecap="round" stroke-linejoin="round" stroke-width="2"/>
    <path id="Trazado_22470" data-name="Trazado 22470" d="M7,6V18" transform="translate(-4 -3)" fill="none" stroke="#5bc5f2" stroke-linecap="round" stroke-linejoin="round" stroke-width="2"/>
    <path id="Trazado_22471" data-name="Trazado 22471" d="M17,3a2,2,0,0,1,2,2V8a2,2,0,0,1-4,0V5A2,2,0,0,1,17,3Z" transform="translate(-4 -3)" fill="none" stroke="#5bc5f2" stroke-linecap="round" stroke-linejoin="round" stroke-width="2"/>
    <circle id="Elipse_655" data-name="Elipse 655" cx="2" cy="2" r="2" transform="translate(11 11)" fill="none" stroke="#5bc5f2" stroke-linecap="round" stroke-linejoin="round" stroke-width="2"/>
    <path id="Trazado_22472" data-name="Trazado 22472" d="M19,16v3a2,2,0,0,1-2,2H15.5" transform="translate(-4 -3)" fill="none" stroke="#5bc5f2" stroke-linecap="round" stroke-linejoin="round" stroke-width="2"/>
  </g>
</svg>
