<svg xmlns="http://www.w3.org/2000/svg" width="20" height="20" viewBox="0 0 20 20">
  <g id="Componente_206_24" data-name="Componente 206 – 24" transform="translate(1 1)">
    <path id="Trazado_22466" data-name="Trazado 22466" d="M6.75,3V5.25M17.25,3V5.25M3,18.75V7.5A2.25,2.25,0,0,1,5.25,5.25h13.5A2.25,2.25,0,0,1,21,7.5V18.75m-18,0A2.25,2.25,0,0,0,5.25,21h13.5A2.25,2.25,0,0,0,21,18.75m-18,0v-7.5A2.25,2.25,0,0,1,5.25,9h13.5A2.25,2.25,0,0,1,21,11.25v7.5m-9-6h.008v.008H12ZM12,15h.008v.008H12Zm0,2.25h.008v.008H12ZM9.75,15h.008v.008H9.75Zm0,2.25h.008v.008H9.75ZM7.5,15h.008v.008H7.5Zm0,2.25h.008v.008H7.5Zm6.75-4.5h.008v.008H14.25Zm0,2.25h.008v.008H14.25Zm0,2.25h.008v.008H14.25Zm2.25-4.5h.008v.008H16.5Zm0,2.25h.008v.008H16.5Z" transform="translate(-3 -3)" fill="none" stroke="#5bc5f2" stroke-linecap="round" stroke-linejoin="round" stroke-width="2"/>
  </g>
</svg>
