<svg xmlns="http://www.w3.org/2000/svg" width="18.5" height="21.5" viewBox="0 0 18.5 21.5">
  <g id="Componente_214_3" data-name="Componente 214 – 3" transform="translate(1 1)">
    <path id="Trazado_22482" data-name="Trazado 22482" d="M8.25,7.5V6.108a2.177,2.177,0,0,1,1.976-2.192q.56-.045,1.123-.08M15.75,18H18a2.25,2.25,0,0,0,2.25-2.25V6.108a2.177,2.177,0,0,0-1.976-2.192q-.561-.047-1.123-.08M15.75,18.75V16.875A3.375,3.375,0,0,0,12.375,13.5h-1.5A1.125,1.125,0,0,1,9.75,12.375v-1.5A3.375,3.375,0,0,0,6.375,7.5H5.25m11.9-3.664A2.251,2.251,0,0,0,15,2.25H13.5a2.251,2.251,0,0,0-2.15,1.585m5.8,0a2.242,2.242,0,0,1,.1.664v.75h-6V4.5a2.242,2.242,0,0,1,.1-.664M6.75,7.5H4.875A1.125,1.125,0,0,0,3.75,8.625v12A1.125,1.125,0,0,0,4.875,21.75h9.75a1.125,1.125,0,0,0,1.125-1.125V16.5a9,9,0,0,0-9-9Z" transform="translate(-3.75 -2.25)" fill="none" stroke="#5bc5f2" stroke-linecap="round" stroke-linejoin="round" stroke-width="2"/>
  </g>
</svg>
