<svg xmlns="http://www.w3.org/2000/svg" width="21.309" height="19.8" viewBox="0 0 21.309 19.8">
  <g id="Componente_212_4" data-name="Componente 212 – 4" transform="translate(0.906 0.9)">
    <path id="Trazado_22479" data-name="Trazado 22479" d="M13.5,21V13.5a.75.75,0,0,1,.75-.75h3a.75.75,0,0,1,.75.75V21m-4.5,0H2.36M13.5,21H18m0,0h3.64m-1.39,0V9.349M3.75,21V9.35m0,0A3,3,0,0,0,7.5,8.735a3,3,0,0,0,4.5,0,3,3,0,0,0,4.5,0,3,3,0,0,0,3.75.614m-16.5,0a3,3,0,0,1-.621-4.72L4.318,3.44A1.5,1.5,0,0,1,5.378,3H18.621a1.5,1.5,0,0,1,1.06.44l1.19,1.189a3,3,0,0,1-.621,4.72M6.75,18H10.5a.75.75,0,0,0,.75-.75V13.5a.75.75,0,0,0-.75-.75H6.75A.75.75,0,0,0,6,13.5v3.75a.75.75,0,0,0,.75.75Z" transform="translate(-2.252 -3)" fill="none" stroke="#5bc5f2" stroke-linecap="round" stroke-linejoin="round" stroke-width="1.8"/>
  </g>
</svg>
