<svg xmlns="http://www.w3.org/2000/svg" width="65" height="54.361" viewBox="0 0 65 54.361">
    <g data-name="Grupo 5293">
        <g data-name="Grupo 5246">
            <g data-name="Grupo 5227">
                <path data-name="Trazado 22349" d="M9.889 4h13.778L34 14.272h24.111A6.869 6.869 0 0 1 65 21.12v27.393a6.869 6.869 0 0 1-6.889 6.848H9.889A6.869 6.869 0 0 1 3 48.513V10.848A6.869 6.869 0 0 1 9.889 4" transform="translate(-1.5 -2.5)" style="stroke:#000;stroke-width:3px;fill:none;stroke-linecap:round;stroke-linejoin:round"/>
            </g>
        </g>
        <g data-name="Grupo 5292">
            <path data-name="Trazado 22377" d="M5 12H3l9-9 9 9h-2" transform="translate(20.5 17.86)" style="stroke:#5bc5f2;stroke-width:2px;fill:none;stroke-linecap:round;stroke-linejoin:round"/>
            <path data-name="Trazado 22378" d="M5 12v7a2 2 0 0 0 2 2h10a2 2 0 0 0 2-2v-7" transform="translate(20.5 17.86)" style="stroke:#5bc5f2;stroke-width:2px;fill:none;stroke-linecap:round;stroke-linejoin:round"/>
            <path data-name="Rectángulo 3203" transform="translate(30.5 29.86)" style="stroke:#5bc5f2;stroke-width:2px;fill:none;stroke-linecap:round;stroke-linejoin:round" d="M0 0h4v4H0z"/>
        </g>
    </g>
</svg>
