<svg xmlns="http://www.w3.org/2000/svg" width="65" height="54.361" viewBox="0 0 65 54.361">
    <g data-name="Grupo 5278">
        <g data-name="Grupo 5276">
            <g data-name="Grupo 5245">
                <g data-name="Grupo 5227">
                    <path data-name="Trazado 22349" d="M9.889 4h13.778L34 14.272h24.111A6.869 6.869 0 0 1 65 21.12v27.393a6.869 6.869 0 0 1-6.889 6.848H9.889A6.869 6.869 0 0 1 3 48.513V10.848A6.869 6.869 0 0 1 9.889 4" transform="translate(-1.5 -2.5)" style="stroke:#000;stroke-width:3px;fill:none;stroke-linecap:round;stroke-linejoin:round"/>
                </g>
            </g>
        </g>
        <g data-name="Grupo 5277">
            <path data-name="Línea 1254" transform="translate(23.5 37.86)" style="stroke:#5bc5f2;stroke-width:2px;fill:none;stroke-linecap:round;stroke-linejoin:round" d="M0 0h18"/>
            <path data-name="Trazado 22361" d="M5 21V7l8-4v18" transform="translate(20.5 16.86)" style="stroke:#5bc5f2;stroke-width:2px;fill:none;stroke-linecap:round;stroke-linejoin:round"/>
            <path data-name="Trazado 22362" d="M19 21V11l-6-4" transform="translate(20.5 16.86)" style="stroke:#5bc5f2;stroke-width:2px;fill:none;stroke-linecap:round;stroke-linejoin:round"/>
            <path data-name="Línea 1255" transform="translate(29.5 25.86)" style="stroke:#5bc5f2;stroke-width:2px;fill:none;stroke-linecap:round;stroke-linejoin:round" d="M0 0v.01"/>
            <path data-name="Línea 1256" transform="translate(29.5 28.86)" style="stroke:#5bc5f2;stroke-width:2px;fill:none;stroke-linecap:round;stroke-linejoin:round" d="M0 0v.01"/>
            <path data-name="Línea 1257" transform="translate(29.5 31.86)" style="stroke:#5bc5f2;stroke-width:2px;fill:none;stroke-linecap:round;stroke-linejoin:round" d="M0 0v.01"/>
            <path data-name="Línea 1258" transform="translate(29.5 34.86)" style="stroke:#5bc5f2;stroke-width:2px;fill:none;stroke-linecap:round;stroke-linejoin:round" d="M0 0v.01"/>
        </g>
    </g>
</svg>
