<svg xmlns="http://www.w3.org/2000/svg" width="65" height="54.361" viewBox="0 0 65 54.361">
    <g data-name="Grupo 5250">
        <g data-name="Grupo 5241">
            <g data-name="Grupo 5239">
                <g data-name="Grupo 5236">
                    <g data-name="Grupo 5234">
                        <g data-name="Grupo 5227">
                            <path data-name="Trazado 22349" d="M9.889 4h13.778L34 14.272h24.111A6.869 6.869 0 0 1 65 21.12v27.393a6.869 6.869 0 0 1-6.889 6.848H9.889A6.869 6.869 0 0 1 3 48.513V10.848A6.869 6.869 0 0 1 9.889 4" transform="translate(-1.5 -2.5)" style="stroke:#000;stroke-width:3px;fill:none;stroke-linecap:round;stroke-linejoin:round"/>
                        </g>
                    </g>
                </g>
            </g>
        </g>
        <g data-name="Grupo 5243">
            <g data-name="Grupo 5130" transform="translate(-952.5 -579.14)">
                <path data-name="Trazado 22235" d="M18 14v8.02h8.02" transform="translate(961.02 586.185)" style="stroke-width:2px;stroke:#5bc5f2;fill:none;stroke-linecap:round;stroke-linejoin:round"/>
                <circle data-name="Elipse 639" cx="9" cy="9" r="9" transform="translate(970 600.185)" style="stroke-width:2px;stroke:#5bc5f2;fill:none;stroke-linecap:round;stroke-linejoin:round"/>
            </g>
            <g data-name="Grupo 5242" transform="translate(-599.5 -706.735)">
                <circle data-name="Elipse 658" cx="3" cy="3" r="3" transform="translate(639 732.595)" style="stroke-width:1.8px;stroke:#5bc5f2;fill:none;stroke-linecap:round;stroke-linejoin:round"/>
                <path data-name="Trazado 22350" d="M3 19.076v-1.359A2.717 2.717 0 0 1 5.717 15h2.718a2.717 2.717 0 0 1 2.717 2.717v1.359" transform="translate(635 726.518)" style="stroke-width:1.8px;stroke:#5bc5f2;fill:none;stroke-linecap:round;stroke-linejoin:round"/>
            </g>
        </g>
    </g>
</svg>
