<svg xmlns="http://www.w3.org/2000/svg" width="65" height="54.361" viewBox="0 0 65 54.361">
    <g data-name="Grupo 5249">
        <g data-name="Grupo 5244">
            <g data-name="Grupo 5227">
                <path data-name="Trazado 22349" d="M9.889 4h13.778L34 14.272h24.111A6.869 6.869 0 0 1 65 21.12v27.393a6.869 6.869 0 0 1-6.889 6.848H9.889A6.869 6.869 0 0 1 3 48.513V10.848A6.869 6.869 0 0 1 9.889 4" transform="translate(-1.5 -2.5)" style="stroke:#000;stroke-width:3px;fill:none;stroke-linecap:round;stroke-linejoin:round"/>
            </g>
        </g>
        <g data-name="Grupo 5248">
            <path data-name="Trazado 22354" d="m12 3 8 4.5v9L12 21l-8-4.5v-9L12 3" transform="translate(20.5 18.86)" style="stroke:#5bc5f2;stroke-width:2px;fill:none;stroke-linecap:round;stroke-linejoin:round"/>
            <path data-name="Línea 1251" transform="translate(32.5 26.36)" style="stroke:#5bc5f2;stroke-width:2px;fill:none;stroke-linecap:round;stroke-linejoin:round" d="M0 4.5 8 0"/>
            <path data-name="Línea 1252" transform="translate(32.5 30.86)" style="stroke:#5bc5f2;stroke-width:2px;fill:none;stroke-linecap:round;stroke-linejoin:round" d="M0 0v9"/>
            <path data-name="Línea 1253" transform="translate(24.5 26.36)" style="stroke:#5bc5f2;stroke-width:2px;fill:none;stroke-linecap:round;stroke-linejoin:round" d="M8 4.5 0 0"/>
        </g>
    </g>
</svg>
