<svg xmlns="http://www.w3.org/2000/svg" width="109.593" height="79.026" viewBox="0 0 109.593 79.026">
    <g data-name="Grupo 5340">
        <g data-name="Grupo 27176">
            <path d="M77.709 70.173V40.83a2.625 2.625 0 0 0-1.317-2.268v-4.317a6.593 6.593 0 0 0-6.586-6.586v-.9a9.237 9.237 0 0 0 5.2-7.208 3.951 3.951 0 0 0 2.7-3.748v-5.266a6.6 6.6 0 0 0-4.378-6.2l.263-.4A2.533 2.533 0 0 0 71.484 0h-8.263A9.23 9.23 0 0 0 54 9.22v6.586a3.951 3.951 0 0 0 2.7 3.748 9.237 9.237 0 0 0 5.2 7.208v.9a6.593 6.593 0 0 0-6.586 6.586v4.317A2.625 2.625 0 0 0 54 40.83v28.976h-2.633V46.1a2.625 2.625 0 0 0-1.317-2.268v-4.319a6.593 6.593 0 0 0-6.586-6.586v-.9a9.237 9.237 0 0 0 5.2-7.209 3.951 3.951 0 0 0 2.7-3.748v-5.265a6.6 6.6 0 0 0-4.378-6.2l.263-.4a2.533 2.533 0 0 0-2.11-3.937h-8.26a9.23 9.23 0 0 0-9.22 9.22v6.586a3.951 3.951 0 0 0 2.7 3.748 9.237 9.237 0 0 0 5.2 7.208v.9a6.593 6.593 0 0 0-6.586 6.586v4.317a2.625 2.625 0 0 0-1.314 2.267v23.706h-2.634V51.367a2.625 2.625 0 0 0-1.317-2.267v-4.319a6.593 6.593 0 0 0-6.586-6.581v-.9a9.237 9.237 0 0 0 5.2-7.208 3.951 3.951 0 0 0 2.7-3.748v-5.27a6.6 6.6 0 0 0-4.378-6.2l.263-.4a2.533 2.533 0 0 0-2.11-3.937h-8.26a9.23 9.23 0 0 0-9.22 9.22v6.586a3.951 3.951 0 0 0 2.7 3.748A9.237 9.237 0 0 0 9.22 37.3v.9a6.593 6.593 0 0 0-6.586 6.586V49.1a2.625 2.625 0 0 0-1.317 2.268v18.805A2.625 2.625 0 0 0 0 72.441v3.951a2.634 2.634 0 0 0 2.634 2.634h73.758a2.634 2.634 0 0 0 2.634-2.634v-3.951a2.625 2.625 0 0 0-1.317-2.268zM63.221 2.634H71.3l-1.27 1.9a1.317 1.317 0 0 0 1.1 2.048 3.951 3.951 0 0 1 3.951 3.951v.067a3.284 3.284 0 0 0-2.254.345 4.873 4.873 0 0 0-3.167-1.972 11.019 11.019 0 0 1-3.207-.922 1.317 1.317 0 0 0-1.185 0 11.016 11.016 0 0 1-3.2.922 4.713 4.713 0 0 0-2.94 1.682c-.083.1-.161.195-.234.3a3.284 3.284 0 0 0-2.256-.346V9.22a6.593 6.593 0 0 1 6.586-6.586zM59.27 18.439a1.317 1.317 0 0 0-1.317-1.317 1.317 1.317 0 0 1-1.317-1.317V13.83a.659.659 0 0 1 1.317 0 1.317 1.317 0 1 0 2.634 0 2.273 2.273 0 0 1 .561-1.486 2.107 2.107 0 0 1 1.317-.769 14.829 14.829 0 0 0 3.39-.906 14.785 14.785 0 0 0 3.386.9 2.315 2.315 0 0 1 1.882 2.256 1.317 1.317 0 1 0 2.634 0 .659.659 0 0 1 1.317 0v1.976a1.317 1.317 0 0 1-1.317 1.317 1.317 1.317 0 0 0-1.317 1.317 6.586 6.586 0 1 1-13.171 0zm6.586 9.22a9.238 9.238 0 0 0 1.317-.1v1.421a1.317 1.317 0 0 1-1.317 1.317 1.288 1.288 0 0 1-.939-.4 1.271 1.271 0 0 1-.378-.914v-1.428a9.238 9.238 0 0 0 1.317.1zm-7.9 6.586a3.951 3.951 0 0 1 3.944-3.952h.238a3.754 3.754 0 0 0 .913 1.459 3.878 3.878 0 0 0 2.8 1.175 3.951 3.951 0 0 0 3.709-2.634h.242a3.951 3.951 0 0 1 3.951 3.951V38.2H57.952zm-1.321 6.585h18.44v28.976h-18.44zM36.879 7.9h8.076l-1.27 1.9a1.317 1.317 0 0 0 1.1 2.048 3.951 3.951 0 0 1 3.951 3.951v.067a3.284 3.284 0 0 0-2.254.345 4.873 4.873 0 0 0-3.161-1.976 11.019 11.019 0 0 1-3.207-.922 1.317 1.317 0 0 0-1.185 0 11.016 11.016 0 0 1-3.2.922 4.713 4.713 0 0 0-2.933 1.683c-.083.1-.161.195-.234.3a3.284 3.284 0 0 0-2.263-.348v-1.382a6.593 6.593 0 0 1 6.58-6.588zm-3.951 15.808a1.317 1.317 0 0 0-1.317-1.317 1.317 1.317 0 0 1-1.317-1.317V19.1a.659.659 0 1 1 1.317 0 1.317 1.317 0 1 0 2.634 0 2.273 2.273 0 0 1 .561-1.486 2.107 2.107 0 0 1 1.317-.769 14.829 14.829 0 0 0 3.39-.906 14.784 14.784 0 0 0 3.386.9 2.315 2.315 0 0 1 1.882 2.261 1.317 1.317 0 0 0 2.634 0 .659.659 0 1 1 1.317 0v1.976a1.317 1.317 0 0 1-1.317 1.317 1.317 1.317 0 0 0-1.315 1.315 6.586 6.586 0 0 1-13.171 0zm6.586 9.22a9.238 9.238 0 0 0 1.317-.1v1.421a1.317 1.317 0 0 1-1.317 1.317 1.288 1.288 0 0 1-.939-.4 1.271 1.271 0 0 1-.378-.914v-1.428a9.238 9.238 0 0 0 1.317.1zm-7.9 6.586a3.951 3.951 0 0 1 3.951-3.951h.235a3.754 3.754 0 0 0 .913 1.459 3.878 3.878 0 0 0 2.8 1.175 3.951 3.951 0 0 0 3.709-2.634h.242a3.951 3.951 0 0 1 3.951 3.951v3.951H31.61zM30.293 46.1h18.44v23.706h-18.44zM3.951 51.367h18.44v18.439H3.951zm6.586-38.2h8.076l-1.27 1.9a1.317 1.317 0 0 0 1.1 2.048 3.951 3.951 0 0 1 3.951 3.951v.067a3.284 3.284 0 0 0-2.254.345 4.873 4.873 0 0 0-3.161-1.976 11.019 11.019 0 0 1-3.207-.922 1.317 1.317 0 0 0-1.185 0 11.016 11.016 0 0 1-3.2.922 4.713 4.713 0 0 0-2.94 1.682c-.083.1-.161.195-.234.3a3.284 3.284 0 0 0-2.256-.346v-1.381a6.593 6.593 0 0 1 6.586-6.586zM6.586 28.976a1.317 1.317 0 0 0-1.317-1.317 1.317 1.317 0 0 1-1.317-1.317v-1.976a.659.659 0 0 1 1.317 0 1.317 1.317 0 1 0 2.634 0 2.273 2.273 0 0 1 .561-1.486 2.107 2.107 0 0 1 1.317-.769 14.829 14.829 0 0 0 3.39-.906 14.785 14.785 0 0 0 3.386.9 2.315 2.315 0 0 1 1.882 2.256 1.317 1.317 0 1 0 2.634 0 .659.659 0 0 1 1.317 0v1.976a1.317 1.317 0 0 1-1.317 1.317 1.317 1.317 0 0 0-1.317 1.317 6.586 6.586 0 1 1-13.171 0zm6.586 9.22a9.238 9.238 0 0 0 1.317-.1v1.421a1.317 1.317 0 0 1-1.317 1.317 1.286 1.286 0 0 1-.939-.4 1.271 1.271 0 0 1-.378-.914v-1.428a9.238 9.238 0 0 0 1.317.1zm-7.9 6.586A3.951 3.951 0 0 1 9.22 40.83h.238a3.746 3.746 0 0 0 .911 1.458 3.868 3.868 0 0 0 2.8 1.176 3.951 3.951 0 0 0 3.711-2.634h.242a3.951 3.951 0 0 1 3.951 3.951v3.951H5.268zm71.124 31.61H2.634v-3.951h73.758z"/>
            <path data-name="Trazado 22455" d="m9 20.815 8.815 8.815L35.446 12" transform="translate(72.026 9.882)" style="fill:none;stroke:#5bc5f2;stroke-linecap:round;stroke-linejoin:round;stroke-width:3px"/>
        </g>
    </g>
</svg>
