<svg xmlns="http://www.w3.org/2000/svg" width="96.679" height="70.156" viewBox="0 0 96.679 70.156">
    <g data-name="Grupo 27177">
        <path d="M24.357 16.473a1.545 1.545 0 0 0 .505 1.694l4.527 3.638-1.524 5.6a1.556 1.556 0 0 0 2.354 1.71l4.859-3.181 4.859 3.181a1.556 1.556 0 0 0 2.354-1.711l-1.524-5.6 4.526-3.638a1.556 1.556 0 0 0-.9-2.768l-5.8-.283-2.059-5.427a1.556 1.556 0 0 0-2.91 0l-2.062 5.429-5.8.283a1.544 1.544 0 0 0-1.4 1.074zm7.728.813a1.556 1.556 0 0 0 1.379-1l1.615-4.253 1.615 4.253a1.556 1.556 0 0 0 1.379 1l4.543.222-3.546 2.85a1.556 1.556 0 0 0-.527 1.621l1.193 4.389-3.806-2.492a1.557 1.557 0 0 0-1.7 0l-3.806 2.491 1.193-4.389a1.556 1.556 0 0 0-.527-1.622l-3.545-2.85zm1.9-12.167V1.1a1.1 1.1 0 1 1 2.192 0v4.019a1.1 1.1 0 1 1-2.192 0zm6.676 6.495a1.1 1.1 0 0 1 .081-1.548l4.483-4.036a1.1 1.1 0 1 1 1.467 1.629l-4.486 4.036a1.1 1.1 0 0 1-1.548-.081zM23.387 6.11a1.1 1.1 0 0 1 1.548-.081l4.483 4.036a1.1 1.1 0 0 1-1.467 1.629l-4.483-4.036a1.1 1.1 0 0 1-.081-1.548zm25.755 12.057 4.527 3.638-1.524 5.6a1.556 1.556 0 0 0 2.354 1.71l4.859-3.181 4.859 3.181a1.556 1.556 0 0 0 2.354-1.711l-1.524-5.6 4.526-3.638a1.556 1.556 0 0 0-.9-2.768l-5.8-.283-2.06-5.427a1.556 1.556 0 0 0-2.91 0l-2.061 5.429-5.8.283a1.556 1.556 0 0 0-.9 2.768zm7.222-.881a1.556 1.556 0 0 0 1.379-1l1.615-4.253 1.614 4.252a1.556 1.556 0 0 0 1.379 1l4.543.222-3.545 2.849a1.556 1.556 0 0 0-.527 1.622l1.193 4.389-3.809-2.49a1.557 1.557 0 0 0-1.7 0L54.7 26.368l1.193-4.389a1.556 1.556 0 0 0-.527-1.622l-3.545-2.85zm-55.781.881 4.523 3.638-1.524 5.6a1.556 1.556 0 0 0 2.354 1.71l4.859-3.181 4.859 3.181a1.556 1.556 0 0 0 2.354-1.711l-1.524-5.6 4.526-3.638a1.556 1.556 0 0 0-.9-2.768l-5.8-.283-2.056-5.427a1.556 1.556 0 0 0-2.91 0l-2.061 5.429-5.8.283a1.556 1.556 0 0 0-.9 2.768zm7.223-.881a1.556 1.556 0 0 0 1.379-1l1.615-4.253 1.614 4.252a1.556 1.556 0 0 0 1.379 1l4.543.222-3.545 2.849a1.556 1.556 0 0 0-.527 1.622l1.193 4.389-3.806-2.492a1.557 1.557 0 0 0-1.7 0l-3.81 2.493 1.193-4.389a1.556 1.556 0 0 0-.528-1.622l-3.545-2.85zm62.179 40.94a12.58 12.58 0 0 0-4.448-6.3 12.433 12.433 0 0 0-3.251-1.752 6.85 6.85 0 1 0-8.447 0 12.345 12.345 0 0 0-5.485 3.913 16.328 16.328 0 0 0-8.432-6.1 8.787 8.787 0 1 0-9.683 0 16.327 16.327 0 0 0-8.432 6.1 12.344 12.344 0 0 0-5.485-3.913 6.85 6.85 0 1 0-8.447 0 12.435 12.435 0 0 0-3.251 1.752 12.58 12.58 0 0 0-4.448 6.3 3.615 3.615 0 0 0 .556 3.288 3.615 3.615 0 0 0 2.976 1.5h15.151v1.978a5.167 5.167 0 0 0 5.161 5.161h22.117a5.167 5.167 0 0 0 5.161-5.161v-1.975h15.154a3.7 3.7 0 0 0 3.532-4.791zm-11.92-18.1a4.658 4.658 0 1 1-4.659 4.66 4.663 4.663 0 0 1 4.658-4.657zm-29.58.526a6.595 6.595 0 1 1 6.6 6.595h-.007a6.6 6.6 0 0 1-6.591-6.595zm-16.391-.527a4.658 4.658 0 1 1-4.658 4.658 4.663 4.663 0 0 1 4.657-4.655zm6.912 20.699h-15.3a1.435 1.435 0 0 1-1.211-.612 1.435 1.435 0 0 1-.226-1.338A10.287 10.287 0 0 1 20.573 56.1a16.221 16.221 0 0 0-1.567 4.724zm30.1 4.171a2.973 2.973 0 0 1-2.969 2.969H24.02a2.972 2.972 0 0 1-2.969-2.969V61.98a14.079 14.079 0 0 1 14.024-12.538h.007A14.079 14.079 0 0 1 49.106 61.98zm18.558-4.782a1.435 1.435 0 0 1-1.211.612H51.156a16.231 16.231 0 0 0-1.572-4.725 10.287 10.287 0 0 1 18.306 2.774 1.435 1.435 0 0 1-.226 1.339z"/>
        <path data-name="Trazado 22458" d="m9 20.815 8.815 8.815L35.446 12" transform="translate(59.111 14.263)" style="fill:none;stroke:#5bc5f2;stroke-linecap:round;stroke-linejoin:round;stroke-width:3px"/>
    </g>
</svg>
