<svg xmlns="http://www.w3.org/2000/svg" width="62.764" height="81.68" viewBox="0 0 62.764 81.68">
    <g data-name="Grupo 5123">
        <g data-name="Grupo 4443">
            <g data-name="Grupo 4438">
                <g data-name="Grupo 4437">
                    <path data-name="Trazado 22258" d="M55.119 36.59h-11.75a2.374 2.374 0 0 0 0 4.747h11.75a2.362 2.362 0 0 1 2.35 2.373v30.85a2.362 2.362 0 0 1-2.35 2.373h-47a2.362 2.362 0 0 1-2.35-2.373V43.705a2.362 2.362 0 0 1 2.35-2.373h11.748a2.374 2.374 0 0 0 0-4.747H8.116a7.086 7.086 0 0 0-7.05 7.12v30.854a7.086 7.086 0 0 0 7.05 7.12h47a7.086 7.086 0 0 0 7.05-7.12V43.705a7.086 7.086 0 0 0-7.047-7.115z"/>
                </g>
            </g>
            <g data-name="Grupo 4440">
                <g data-name="Grupo 4439">
                    <path data-name="Trazado 22259" d="M163.652 12.179 152.146.674a2.3 2.3 0 0 0-3.254 0l-11.505 11.505a2.3 2.3 0 0 0 3.254 3.254l7.577-7.577V46.02a2.3 2.3 0 1 0 4.6 0V7.855l7.577 7.577a2.3 2.3 0 0 0 3.253-3.254z" transform="translate(-118.901 15.876)" style="fill:#5bc5f2"/>
                </g>
            </g>
            <g data-name="Grupo 4441">
                <g data-name="Grupo 4439">
                    <path data-name="Trazado 22259" d="m151.078 6.488-6.13-6.129a1.226 1.226 0 0 0-1.733 0l-6.129 6.129a1.226 1.226 0 0 0 1.733 1.733l4.037-4.037v20.333a1.226 1.226 0 0 0 2.452 0V4.185l4.037 4.037a1.226 1.226 0 0 0 1.733-1.733z" transform="translate(-89.251 .605)" style="stroke:#5bc5f2;fill:#5bc5f2"/>
                </g>
            </g>
            <g data-name="Grupo 4442">
                <g data-name="Grupo 4439">
                    <path data-name="Trazado 22259" d="M146.626 4.473 142.4.247a.845.845 0 0 0-1.2 0l-4.226 4.226a.845.845 0 0 0 1.2 1.2l2.783-2.783V16.9a.845.845 0 0 0 1.691 0V2.885l2.783 2.783a.845.845 0 0 0 1.2-1.2z" transform="translate(-136.241 8.598)" style="stroke:#5bc5f2;fill:#5bc5f2"/>
                </g>
            </g>
        </g>
    </g>
</svg>
