<svg xmlns="http://www.w3.org/2000/svg" width="15.917" height="19.1" viewBox="0 0 15.917 19.1">
    <path d="M111.91 71.163a.789.789 0 0 0-.226-.563l-6.367-6.367a.787.787 0 0 0-.563-.227V64h-4.775A3.984 3.984 0 0 0 96 67.979v11.142a3.984 3.984 0 0 0 3.979 3.979h7.959a3.984 3.984 0 0 0 3.979-3.979v-7.958zm-6.359-4.446 3.65 3.65h-1.262a2.39 2.39 0 0 1-2.388-2.388zm2.388 14.792h-7.96a2.39 2.39 0 0 1-2.388-2.388V67.979a2.39 2.39 0 0 1 2.388-2.388h3.979v2.388a3.984 3.984 0 0 0 3.979 3.979h2.388v7.163a2.39 2.39 0 0 1-2.387 2.388zm0-3.183a.8.8 0 0 1-.8.8h-6.367a.8.8 0 1 1 0-1.592h6.367a.8.8 0 0 1 .799.791zm0-3.183a.8.8 0 0 1-.8.8h-6.367a.8.8 0 0 1 0-1.592h6.367a.8.8 0 0 1 .799.791zM99.98 71.96a.8.8 0 0 1 .8-.8h1.592a.8.8 0 0 1 0 1.592h-1.592a.8.8 0 0 1-.801-.793z" transform="translate(-96 -64)" style="fill:#5bc5f2"/>
</svg>
