<svg xmlns="http://www.w3.org/2000/svg" width="79.263" height="78.965" viewBox="0 0 79.263 78.965">
    <g data-name="Grupo 5312">
        <path data-name="Trazado 22428" d="m20.767 58.974-4.658 4.646-2.79-2.79a1.317 1.317 0 1 0-1.856 1.869l2.79 2.79a2.653 2.653 0 0 0 3.725 0l4.646-4.659a1.316 1.316 0 0 0-1.856-1.856zm0 0"/>
        <path data-name="Trazado 22429" d="M5.264 62.515a11.187 11.187 0 0 0 22.374 0 1.316 1.316 0 1 0-2.632 0 8.556 8.556 0 1 1-3.422-6.843 1.316 1.316 0 0 0 1.58-2.106 11.187 11.187 0 0 0-17.9 8.949zm0 0"/>
        <path data-name="Trazado 22430" d="M47.379 10.529a1.316 1.316 0 1 0 0-2.632H13.161a1.316 1.316 0 0 0-1.316 1.316v5.265a1.316 1.316 0 0 0 1.316 1.316h34.218a1.316 1.316 0 1 0 0-2.632h-32.9v-2.633zm0 0"/>
        <path data-name="Trazado 22431" d="M17.109 18.425a1.316 1.316 0 0 0 0 2.632h26.322a1.316 1.316 0 0 0 0-2.632zm0 0"/>
        <path data-name="Trazado 22432" d="M51.327 27.638H22.373a1.316 1.316 0 0 0 0 2.632h28.954a1.316 1.316 0 1 0 0-2.632zm0 0"/>
        <path data-name="Trazado 22433" d="M38.167 36.85a1.316 1.316 0 0 0-1.316-1.316H10.529a1.316 1.316 0 1 0 0 2.632h26.322a1.316 1.316 0 0 0 1.316-1.316zm0 0"/>
        <path data-name="Trazado 22434" d="M51.328 35.534h-9.213a1.316 1.316 0 1 0 0 2.632h9.213a1.316 1.316 0 0 0 0-2.632zm0 0"/>
        <path data-name="Trazado 22435" d="M23.69 44.747a1.316 1.316 0 1 0 0-2.632H10.529a1.316 1.316 0 1 0 0 2.632zm0 0"/>
        <path data-name="Trazado 22436" d="M28.954 44.747h9.213a1.316 1.316 0 1 0 0-2.632h-9.213a1.316 1.316 0 1 0 0 2.632zm0 0"/>
        <path data-name="Trazado 22437" d="M59.224 60.54a1.316 1.316 0 0 0-1.316 1.321v13.156a1.316 1.316 0 0 1-1.316 1.316H3.948a1.316 1.316 0 0 1-1.316-1.316V3.948a1.316 1.316 0 0 1 1.316-1.316h52.644a1.316 1.316 0 0 1 1.316 1.316v24.713a1.316 1.316 0 1 0 2.632 0V3.948A3.948 3.948 0 0 0 56.592 0H3.948A3.948 3.948 0 0 0 0 3.948v71.069a3.948 3.948 0 0 0 3.948 3.944h52.644a3.948 3.948 0 0 0 3.948-3.948V61.861a1.316 1.316 0 0 0-1.316-1.321zm0 0"/>
        <path data-name="Trazado 22438" d="m9 20.815 8.815 8.815L35.446 12" transform="translate(41.695 23.932)" style="fill:none;stroke:#5bc5f2;stroke-linecap:round;stroke-linejoin:round;stroke-width:3px"/>
    </g>
</svg>
