<svg xmlns="http://www.w3.org/2000/svg" width="86.9" height="82.417" viewBox="0 0 86.9 82.417">
    <g data-name="Grupo 27153">
        <g data-name="Grupo 5338">
            <g data-name="Grupo 27151">
                <g data-name="Grupo 5343">
                    <g data-name="Grupo 5342">
                        <path data-name="Trazado 2" d="M51.985 76.814H9.311a6.214 6.214 0 0 1-6.207-6.207V23.278a6.214 6.214 0 0 1 6.207-6.207h26.233l.589 3.06a3.885 3.885 0 0 0 3.81 3.147h7.017a3.885 3.885 0 0 0 3.81-3.147l.589-3.06h26.233a6.214 6.214 0 0 1 6.207 6.207v34.139a1.552 1.552 0 0 0 3.1 0V23.278a9.311 9.311 0 0 0-9.311-9.311H51.953l1.8-9.354a3.879 3.879 0 0 0-3.81-4.612H36.957a3.879 3.879 0 0 0-3.81 4.612l1.8 9.354H9.311A9.311 9.311 0 0 0 0 23.278v47.329a9.311 9.311 0 0 0 9.311 9.311h42.674a1.552 1.552 0 1 0 0-3.1zM36.359 3.386a.765.765 0 0 1 .6-.282h12.985a.776.776 0 0 1 .762.922L48.557 15.2v.02l-.831 4.324a.777.777 0 0 1-.762.629h-7.017a.777.777 0 0 1-.762-.629l-.832-4.324v-.019L36.204 4.027a.765.765 0 0 1 .155-.641z"/>
                    </g>
                    <path data-name="Trazado 3" d="M34.913 58.192a3.107 3.107 0 0 0 3.1-3.1v-25.6a3.107 3.107 0 0 0-3.1-3.1H13.189a3.107 3.107 0 0 0-3.1 3.1v25.6a3.107 3.107 0 0 0 3.1 3.1zm-4.655-3.1H17.844v-1.558a3.884 3.884 0 0 1 3.879-3.879h4.655a3.884 3.884 0 0 1 3.879 3.879zm-17.069-25.6h21.724v25.6h-1.554v-1.558a6.99 6.99 0 0 0-6.983-6.983h-4.655a6.99 6.99 0 0 0-6.983 6.983v1.552h-1.552z"/>
                    <path data-name="Trazado 4" d="M24.053 44.226a6.207 6.207 0 1 0-6.207-6.207 6.214 6.214 0 0 0 6.207 6.207zm0-9.31a3.1 3.1 0 1 1-3.1 3.1 3.107 3.107 0 0 1 3.1-3.1z"/>
                    <path data-name="Trazado 5" d="M77.589 38.02a1.552 1.552 0 0 0-1.552-1.552H45.003a1.552 1.552 0 1 0 0 3.1h31.034a1.552 1.552 0 0 0 1.552-1.548z"/>
                    <path data-name="Trazado 6" d="M66.727 47.331a1.552 1.552 0 0 0-1.552-1.552H45.003a1.552 1.552 0 1 0 0 3.1h20.169a1.552 1.552 0 0 0 1.555-1.548z"/>
                    <path data-name="Trazado 7" d="M13.19 67.504h30.258a1.552 1.552 0 0 0 0-3.1H13.19a1.552 1.552 0 1 0 0 3.1z"/>
                    <path data-name="Trazado 8" d="M59.744 58.192a1.552 1.552 0 0 0 0-3.1H45.003a1.552 1.552 0 1 0 0 3.1z"/>
                </g>
                <path data-name="Trazado 22454" d="M2050.658 2059.837a2.024 2.024 0 0 0-1.644-1.386l-4.725-.687-2.113-4.282a2.037 2.037 0 0 0-3.652 0l-2.113 4.282-4.725.687a2.037 2.037 0 0 0-1.129 3.474l3.419 3.333-.807 4.706a2.034 2.034 0 0 0 2.955 2.147l4.227-2.222 4.227 2.222a2.037 2.037 0 0 0 2.955-2.147l-.807-4.706 3.419-3.333a2.024 2.024 0 0 0 .513-2.088zm-1.461 1.117-3.675 3.582a.677.677 0 0 0-.195.6l.867 5.058a.681.681 0 0 1-.988.718l-4.542-2.388a.678.678 0 0 0-.631 0l-4.542 2.388a.681.681 0 0 1-.988-.718l.867-5.058a.677.677 0 0 0-.195-.6l-3.675-3.582a.681.681 0 0 1 .377-1.162l5.078-.738a.678.678 0 0 0 .51-.371l2.271-4.6a.681.681 0 0 1 1.221 0l2.271 4.6a.678.678 0 0 0 .51.371l5.078.738a.681.681 0 0 1 .377 1.162z" transform="translate(-1966.279 -1990.43)" style="fill:#5bc5f2;stroke:#5bc5f2"/>
            </g>
        </g>
    </g>
</svg>
