<svg xmlns="http://www.w3.org/2000/svg" width="88.085" height="79.194" viewBox="0 0 88.085 79.194">
    <g data-name="Grupo 5305">
        <g data-name="Grupo 5307">
            <g data-name="Grupo 5307">
                <g data-name="Grupo 5306">
                    <path data-name="Trazado 22321" d="M6.599 46.198a6.6 6.6 0 1 1 6.6-6.6 6.607 6.607 0 0 1-6.6 6.6zm0-10.559a3.96 3.96 0 1 0 3.96 3.96 3.965 3.965 0 0 0-3.96-3.96z"/>
                    <path data-name="Trazado 22323" d="M39.596 79.196a6.6 6.6 0 1 1 6.6-6.6 6.607 6.607 0 0 1-6.6 6.6zm0-10.559a3.96 3.96 0 1 0 3.96 3.96 3.965 3.965 0 0 0-3.96-3.961z"/>
                    <path data-name="Trazado 22324" d="M39.596 13.201a6.6 6.6 0 1 1 6.6-6.6 6.607 6.607 0 0 1-6.6 6.6zm0-10.559a3.96 3.96 0 1 0 3.96 3.96 3.965 3.965 0 0 0-3.96-3.961z"/>
                    <path data-name="Trazado 22326" d="M65.728 20.767a1.318 1.318 0 0 1-1.045-.513 31.888 31.888 0 0 0-5.755-5.747 1.32 1.32 0 1 1 1.614-2.088 34.5 34.5 0 0 1 6.226 6.225 1.32 1.32 0 0 1-1.04 2.123z"/>
                    <path data-name="Trazado 22327" d="M52.434 10.517a1.308 1.308 0 0 1-.513-.1 31.523 31.523 0 0 0-7.3-2.091 1.32 1.32 0 1 1 .416-2.607 34.124 34.124 0 0 1 7.912 2.263 1.32 1.32 0 0 1-.515 2.536z"/>
                    <path data-name="Trazado 22328" d="M44.832 73.498a1.32 1.32 0 0 1-.206-2.624 31.524 31.524 0 0 0 7.3-2.091 1.32 1.32 0 0 1 1.03 2.431 34.124 34.124 0 0 1-7.908 2.266 1.3 1.3 0 0 1-.211.017z"/>
                    <path data-name="Trazado 22329" d="M59.748 67.045a1.32 1.32 0 0 1-.808-2.364 31.9 31.9 0 0 0 5.747-5.749 1.32 1.32 0 1 1 2.089 1.613 34.422 34.422 0 0 1-6.222 6.225 1.311 1.311 0 0 1-.806.275z"/>
                    <path data-name="Trazado 22330" d="M69.997 53.756a1.32 1.32 0 0 1-1.214-1.835 31.482 31.482 0 0 0 2.089-7.294 1.32 1.32 0 0 1 2.607.416 34.12 34.12 0 0 1-2.264 7.904 1.321 1.321 0 0 1-1.217.805z"/>
                    <path data-name="Trazado 22331" d="M9.196 53.756a1.319 1.319 0 0 1-1.216-.809 34.075 34.075 0 0 1-2.265-7.9 1.32 1.32 0 1 1 2.607-.416 31.529 31.529 0 0 0 2.089 7.29 1.32 1.32 0 0 1-.7 1.73 1.344 1.344 0 0 1-.515.105z"/>
                    <path data-name="Trazado 22332" d="M19.455 67.053a1.311 1.311 0 0 1-.806-.276 34.5 34.5 0 0 1-6.223-6.222 1.32 1.32 0 0 1 2.089-1.613 31.888 31.888 0 0 0 5.748 5.747 1.32 1.32 0 0 1-.808 2.364z"/>
                    <path data-name="Trazado 22333" d="M34.361 73.498a1.273 1.273 0 0 1-.21-.017 34.124 34.124 0 0 1-7.908-2.266 1.32 1.32 0 1 1 1.03-2.431 31.524 31.524 0 0 0 7.3 2.091 1.32 1.32 0 0 1-.207 2.624z"/>
                    <path data-name="Trazado 22334" d="M26.76 10.517a1.32 1.32 0 0 1-.515-2.535 34.124 34.124 0 0 1 7.908-2.266 1.32 1.32 0 1 1 .416 2.607 31.523 31.523 0 0 0-7.3 2.091 1.337 1.337 0 0 1-.513.1z"/>
                    <path data-name="Trazado 22335" d="M13.462 20.778a1.32 1.32 0 0 1-1.049-2.127 34.422 34.422 0 0 1 6.222-6.225 1.32 1.32 0 1 1 1.614 2.088 31.9 31.9 0 0 0-5.747 5.749 1.318 1.318 0 0 1-1.04.515z"/>
                    <path data-name="Trazado 22336" d="M7.019 35.68a1.262 1.262 0 0 1-.21-.017 1.321 1.321 0 0 1-1.1-1.511 34.121 34.121 0 0 1 2.265-7.908 1.32 1.32 0 1 1 2.431 1.03 31.482 31.482 0 0 0-2.084 7.292 1.318 1.318 0 0 1-1.3 1.113z"/>
                    <path data-name="Trazado 22337" d="M29.038 44.878a1.326 1.326 0 0 1-.59-.139L17.889 39.46a1.321 1.321 0 0 1-.73-1.181v-10.56a1.32 1.32 0 0 1 1.91-1.181l10.56 5.279a1.321 1.321 0 0 1 .73 1.181v10.56a1.318 1.318 0 0 1-1.32 1.32zm-9.239-7.415 7.919 3.96v-7.609l-7.919-3.96z"/>
                    <path data-name="Trazado 22338" d="M29.038 34.319a1.322 1.322 0 0 1-.59-.139L17.889 28.9a1.321 1.321 0 0 1 0-2.363l10.559-5.28a1.32 1.32 0 0 1 1.181 0l10.559 5.28a1.321 1.321 0 0 1 0 2.363l-10.559 5.28a1.336 1.336 0 0 1-.591.139zm-7.609-6.6 7.608 3.8 7.608-3.8-7.608-3.8z"/>
                    <path data-name="Trazado 22339" d="M50.156 44.878a1.326 1.326 0 0 1-.59-.139L39.007 39.46a1.321 1.321 0 0 1-.73-1.181v-10.56a1.32 1.32 0 0 1 1.91-1.181l10.56 5.279a1.321 1.321 0 0 1 .73 1.181v10.56a1.318 1.318 0 0 1-1.32 1.32zm-9.239-7.415 7.919 3.96v-7.609l-7.919-3.96z"/>
                    <path data-name="Trazado 22340" d="M50.156 44.878a1.318 1.318 0 0 1-1.32-1.32V32.999a1.321 1.321 0 0 1 .73-1.181l10.559-5.28a1.32 1.32 0 0 1 1.91 1.181v10.559a1.321 1.321 0 0 1-.73 1.181l-10.559 5.28a1.326 1.326 0 0 1-.59.139zm1.32-11.063v7.608l7.919-3.96v-7.608z"/>
                    <path data-name="Trazado 22341" d="M50.156 34.319a1.322 1.322 0 0 1-.59-.139L39.007 28.9a1.321 1.321 0 0 1 0-2.363l10.559-5.28a1.32 1.32 0 0 1 1.181 0l10.559 5.28a1.321 1.321 0 0 1 0 2.363l-10.559 5.28a1.336 1.336 0 0 1-.591.139zm-7.609-6.6 7.608 3.8 7.608-3.8-7.608-3.8z"/>
                    <path data-name="Trazado 22342" d="M39.597 60.717a1.326 1.326 0 0 1-.59-.139l-10.559-5.279a1.321 1.321 0 0 1-.73-1.181v-10.56a1.32 1.32 0 0 1 1.91-1.181l10.56 5.279a1.321 1.321 0 0 1 .73 1.181v10.56a1.318 1.318 0 0 1-1.32 1.32zm-9.239-7.415 7.919 3.96v-7.609l-7.919-3.96z"/>
                    <path data-name="Trazado 22343" d="M39.597 60.716a1.318 1.318 0 0 1-1.32-1.32V48.837a1.321 1.321 0 0 1 .73-1.181l10.559-5.28a1.32 1.32 0 0 1 1.91 1.181v10.559a1.321 1.321 0 0 1-.73 1.181l-10.559 5.28a1.326 1.326 0 0 1-.59.139zm1.32-11.063v7.608l7.919-3.96v-7.608z"/>
                    <path data-name="Trazado 22344" d="M39.597 50.158a1.322 1.322 0 0 1-.59-.139l-10.559-5.28a1.321 1.321 0 0 1 0-2.363l10.559-5.28a1.32 1.32 0 0 1 1.181 0l10.559 5.28a1.321 1.321 0 0 1 0 2.363l-10.559 5.28a1.336 1.336 0 0 1-.591.139zm-7.609-6.6 7.608 3.8 7.608-3.8-7.608-3.8z"/>
                </g>
            </g>
            <g data-name="Grupo 4355" transform="translate(66.459 23.968)">
                <circle data-name="Elipse 638" cx="7.5" cy="7.5" r="7.5" style="fill:none;stroke:#5bc5f2;stroke-linecap:round;stroke-linejoin:round;stroke-width:2.3px"/>
                <path data-name="Línea 1174" transform="translate(13 13)" style="fill:none;stroke:#5bc5f2;stroke-linecap:round;stroke-linejoin:round;stroke-width:2.3px" d="M7 7 0 0"/>
            </g>
        </g>
    </g>
</svg>
