<svg xmlns="http://www.w3.org/2000/svg" width="79.778" height="79.778" viewBox="0 0 79.778 79.778">
    <g data-name="Grupo 27152">
        <path data-name="Trazado 22455" d="M24.334 21H6.289A1.289 1.289 0 0 0 5 22.289v7.734a1.289 1.289 0 0 0 1.289 1.289h18.045a1.289 1.289 0 0 0 1.289-1.289v-7.734A1.289 1.289 0 0 0 24.334 21zm-1.289 7.734H7.578v-5.156h15.467z" transform="translate(.156 4.728)" style="fill:#5bc5f2"/>
        <path data-name="Trazado 22456" d="M40.178 21H27.289A1.289 1.289 0 0 0 26 22.289v7.734a1.289 1.289 0 0 0 1.289 1.289h12.889a1.289 1.289 0 0 0 1.289-1.289v-7.734A1.289 1.289 0 0 0 40.178 21zm-1.289 7.734H28.578v-5.156h10.311z" transform="translate(6.156 4.728)" style="fill:#5bc5f2"/>
        <path data-name="Trazado 22457" d="M62.334 21H44.289A1.289 1.289 0 0 0 43 22.289v7.734a1.289 1.289 0 0 0 1.289 1.289h18.045a1.289 1.289 0 0 0 1.289-1.289v-7.734A1.289 1.289 0 0 0 62.334 21zm-1.289 7.734H45.578v-5.156h15.467z" transform="translate(11 4.728)" style="fill:#5bc5f2"/>
        <path data-name="Trazado 22458" d="M60.851 23.045h2.571v-3.867a1.287 1.287 0 0 0-1.286-1.289H39v-2.578h10.281a1.287 1.287 0 0 0 1.286-1.289V6.289A1.287 1.287 0 0 0 49.281 5h-23.14a1.287 1.287 0 0 0-1.286 1.289v7.734a1.287 1.287 0 0 0 1.286 1.289h10.284v2.578H13.286A1.287 1.287 0 0 0 12 19.178v3.867h2.571v-2.578h21.854v2.578H39v-2.578h21.851zM27.427 7.578H48v5.156H27.427z" transform="translate(2.178 .156)" style="fill:#5bc5f2"/>
        <path data-name="Trazado 22459" d="M75.918 0H3.86A3.86 3.86 0 0 0 0 3.86v43.75a3.86 3.86 0 0 0 3.86 3.86h11.176a9.06 9.06 0 0 0 3.088 3.6 12.884 12.884 0 0 0-7.83 11.838v9.007a1.287 1.287 0 0 0 1.287 1.285h15.441v1.287a1.287 1.287 0 0 0 1.287 1.287H51.47a1.287 1.287 0 0 0 1.287-1.287V77.2H68.2a1.287 1.287 0 0 0 1.287-1.287v-9.002a12.884 12.884 0 0 0-7.83-11.838 9.06 9.06 0 0 0 3.088-3.6h11.173a3.86 3.86 0 0 0 3.86-3.86V3.86A3.86 3.86 0 0 0 75.918 0zm-59.19 47.61a6.434 6.434 0 1 1 6.434 6.434 6.434 6.434 0 0 1-6.434-6.434zm14.329 4.329a9.024 9.024 0 0 0 3.795 5.708 12.92 12.92 0 0 0-1.854.99 12.848 12.848 0 0 0-4.816-3.551 9.079 9.079 0 0 0 2.876-3.146zm17.664 0a9.079 9.079 0 0 0 2.879 3.145 12.838 12.838 0 0 0-4.816 3.553 12.8 12.8 0 0 0-1.854-.991 9.024 9.024 0 0 0 3.791-5.708zm-8.832 4.679a6.434 6.434 0 1 1 6.434-6.434 6.434 6.434 0 0 1-6.434 6.434zM12.867 74.631v-7.72a10.286 10.286 0 0 1 18.11-6.691 12.822 12.822 0 0 0-3.955 9.265v5.147zM50.183 77.2H29.6v-7.72a10.294 10.294 0 0 1 20.588 0zm16.728-10.289v7.72H52.757v-5.147a12.824 12.824 0 0 0-3.957-9.266 10.286 10.286 0 0 1 18.111 6.693zM56.617 54.043a6.434 6.434 0 1 1 6.434-6.434 6.434 6.434 0 0 1-6.434 6.434zM77.2 47.61a1.287 1.287 0 0 1-1.282 1.29h-10.4a9 9 0 0 0-17.737-3.042 9.007 9.007 0 0 0-15.791 0A9 9 0 1 0 14.255 48.9H3.86a1.287 1.287 0 0 1-1.287-1.29V3.86A1.287 1.287 0 0 1 3.86 2.573h72.058A1.287 1.287 0 0 1 77.2 3.86z"/>
        <path data-name="Trazado 22460" d="M61.76 5.156h2.578v2.578H61.76z"/>
        <path data-name="Trazado 22461" d="M66.889 5.156h2.578v2.578h-2.578z"/>
        <path data-name="Trazado 22462" d="M72.045 5.156h2.578v2.578h-2.578z"/>
    </g>
</svg>
