<svg xmlns="http://www.w3.org/2000/svg" width="81.594" height="80" viewBox="0 0 81.594 80">
    <g data-name="Grupo 5284">
        <g data-name="Grupo 5303">
            <g data-name="Grupo 5284">
                <path data-name="Trazado 22311" d="M64.687 23.242a1.563 1.563 0 0 0 1.562-1.562V4.687A4.693 4.693 0 0 0 61.562 0H4.687A4.693 4.693 0 0 0 0 4.687v70.625A4.693 4.693 0 0 0 4.687 80h56.875a4.693 4.693 0 0 0 4.687-4.687V63.8a1.562 1.562 0 1 0-3.125 0v11.512a1.564 1.564 0 0 1-1.562 1.563H4.687a1.564 1.564 0 0 1-1.562-1.562V4.687a1.564 1.564 0 0 1 1.562-1.562h56.875a1.564 1.564 0 0 1 1.562 1.562V21.68a1.563 1.563 0 0 0 1.563 1.562z"/>
            </g>
            <g data-name="Grupo 5285">
                <g data-name="Grupo 5286">
                    <path data-name="Trazado 22312" d="M33.125 8.438a14.368 14.368 0 0 0-9.862 24.823 1.547 1.547 0 0 0 .168.156 14.348 14.348 0 0 0 19.388 0 1.563 1.563 0 0 0 .168-.156 14.368 14.368 0 0 0-9.862-24.823zm0 25.625a11.19 11.19 0 0 1-6.8-2.292 7.812 7.812 0 0 1 13.591 0 11.19 11.19 0 0 1-6.791 2.292zm-2.5-11.875v-1.016a2.5 2.5 0 0 1 5 0v1.016a2.5 2.5 0 1 1-5 0zm11.553 7.294a10.84 10.84 0 0 0-4.6-3.859 5.6 5.6 0 0 0 1.175-3.435v-1.016a5.625 5.625 0 0 0-11.25 0v1.016a5.6 5.6 0 0 0 1.175 3.435 10.84 10.84 0 0 0-4.6 3.859 11.25 11.25 0 1 1 18.106 0z"/>
                </g>
            </g>
            <g data-name="Grupo 5286">
                <g data-name="Grupo 5288">
                    <path data-name="Trazado 22313" d="M41.562 68.437h-8.437a1.562 1.562 0 1 0 0 3.125h8.437a1.562 1.562 0 1 0 0-3.125z"/>
                </g>
            </g>
            <g data-name="Grupo 5287">
                <g data-name="Grupo 5290">
                    <path data-name="Trazado 22314" d="M41.562 59.687H19.374a1.563 1.563 0 0 0 0 3.125h22.188a1.563 1.563 0 0 0 0-3.125z"/>
                </g>
            </g>
            <g data-name="Grupo 5288">
                <g data-name="Grupo 5292">
                    <path data-name="Trazado 22315" d="M41.562 50.937H19.374a1.562 1.562 0 1 0 0 3.125h22.188a1.562 1.562 0 1 0 0-3.125z"/>
                </g>
            </g>
            <g data-name="Grupo 5289">
                <g data-name="Grupo 5294">
                    <path data-name="Trazado 22316" d="M13.806 42.645a1.561 1.561 0 1 0 .458 1.1 1.574 1.574 0 0 0-.458-1.1z"/>
                </g>
            </g>
            <g data-name="Grupo 5290">
                <g data-name="Grupo 5296">
                    <path data-name="Trazado 22317" d="M13.806 51.395a1.561 1.561 0 1 0 .458 1.1 1.577 1.577 0 0 0-.458-1.1z"/>
                </g>
            </g>
            <g data-name="Grupo 5291">
                <g data-name="Grupo 5298">
                    <path data-name="Trazado 22318" d="M13.806 60.145a1.561 1.561 0 1 0 .458 1.1 1.577 1.577 0 0 0-.458-1.1z"/>
                </g>
            </g>
            <g data-name="Grupo 5292">
                <g data-name="Grupo 5300">
                    <path data-name="Trazado 22319" d="M41.562 42.187H19.374a1.563 1.563 0 0 0 0 3.125h22.188a1.563 1.563 0 0 0 0-3.125z"/>
                </g>
            </g>
        </g>
        <path data-name="Trazado 22320" d="m9 20.815 8.815 8.815L35.446 12" transform="translate(44.027 19.184)" style="fill:none;stroke:#5bc5f2;stroke-linecap:round;stroke-linejoin:round;stroke-width:3px"/>
    </g>
</svg>
