<svg xmlns="http://www.w3.org/2000/svg" width="90.574" height="79.957" viewBox="0 0 90.574 79.957">
    <g data-name="Grupo 5338">
        <g data-name="Grupo 5318">
            <g data-name="Grupo 5317">
                <path data-name="Trazado 22425" d="M64.653 23.23a1.562 1.562 0 0 0 1.562-1.562V4.685A4.69 4.69 0 0 0 61.53 0H4.685A4.69 4.69 0 0 0 0 4.685v70.587a4.69 4.69 0 0 0 4.685 4.685H61.53a4.69 4.69 0 0 0 4.685-4.685V63.767a1.562 1.562 0 1 0-3.123 0v11.505a1.563 1.563 0 0 1-1.562 1.562H4.685a1.563 1.563 0 0 1-1.562-1.562V4.685a1.563 1.563 0 0 1 1.562-1.562H61.53a1.563 1.563 0 0 1 1.563 1.562v16.983a1.562 1.562 0 0 0 1.56 1.562z"/>
            </g>
            <g data-name="Grupo 22157">
                <path data-name="Trazado 22455" d="M0 0h44.882v44.882H0z" style="fill:none" transform="translate(45.692 21.03)"/>
                <path data-name="Trazado 22456" d="M5 4h7.48a1.87 1.87 0 0 1 1.87 1.87v7.48a1.87 1.87 0 0 1-1.87 1.87H5" transform="translate(50.042 24.51)" style="stroke:#5bc5f2;stroke-linecap:round;stroke-linejoin:round;stroke-width:3px;fill:none"/>
                <path data-name="Trazado 22457" d="M5 14h7.48a1.87 1.87 0 0 1 1.87 1.87v7.48a1.87 1.87 0 0 1-1.87 1.87H5" transform="translate(50.042 33.211)" style="stroke:#5bc5f2;stroke-linecap:round;stroke-linejoin:round;stroke-width:3px;fill:none"/>
                <path data-name="Trazado 22458" d="M10 7h7.48a1.87 1.87 0 0 1 1.87 1.87v14.961a1.87 1.87 0 0 1-1.87 1.87H10" transform="translate(54.393 27.121)" style="stroke:#5bc5f2;stroke-linecap:round;stroke-linejoin:round;stroke-width:3px;fill:none"/>
                <path data-name="Línea 1229" transform="translate(73.692 43.03)" style="stroke:#5bc5f2;stroke-linecap:round;stroke-linejoin:round;stroke-width:3px;fill:none" d="M0 0h9"/>
            </g>
        </g>
        <g data-name="Grupo 5320">
            <g data-name="Grupo 5319">
                <path data-name="Trazado 22426" d="M33.107 8.433a14.36 14.36 0 0 0-9.857 24.81 1.545 1.545 0 0 0 .168.156 14.34 14.34 0 0 0 19.378 0 1.559 1.559 0 0 0 .168-.156 14.36 14.36 0 0 0-9.857-24.81zm0 25.611a11.184 11.184 0 0 1-6.792-2.291 7.808 7.808 0 0 1 13.584 0 11.184 11.184 0 0 1-6.792 2.291zm-2.5-11.869v-1.014a2.5 2.5 0 0 1 5 0v1.015a2.5 2.5 0 1 1-5 0zm11.547 7.29a10.834 10.834 0 0 0-4.6-3.857 5.592 5.592 0 0 0 1.179-3.432v-1.015a5.622 5.622 0 1 0-11.244 0v1.015a5.592 5.592 0 0 0 1.175 3.433 10.834 10.834 0 0 0-4.6 3.857 11.244 11.244 0 1 1 18.1 0z"/>
            </g>
        </g>
        <g data-name="Grupo 5322">
            <g data-name="Grupo 5321">
                <path data-name="Trazado 22427" d="M41.539 68.401h-8.433a1.562 1.562 0 1 0 0 3.123h8.433a1.562 1.562 0 1 0 0-3.123z"/>
            </g>
        </g>
        <g data-name="Grupo 5324">
            <g data-name="Grupo 5323">
                <path data-name="Trazado 22428" d="M41.54 59.656H19.365a1.562 1.562 0 0 0 0 3.123h22.176a1.562 1.562 0 1 0 0-3.123z"/>
            </g>
        </g>
        <g data-name="Grupo 5326">
            <g data-name="Grupo 5325">
                <path data-name="Trazado 22429" d="M41.54 50.91H19.365a1.562 1.562 0 1 0 0 3.123h22.176a1.562 1.562 0 1 0 0-3.123z"/>
            </g>
        </g>
        <g data-name="Grupo 5328">
            <g data-name="Grupo 5327">
                <path data-name="Trazado 22430" d="M13.799 42.623a1.561 1.561 0 1 0 .458 1.1 1.574 1.574 0 0 0-.458-1.1z"/>
            </g>
        </g>
        <g data-name="Grupo 5330">
            <g data-name="Grupo 5329">
                <path data-name="Trazado 22431" d="M13.799 51.368a1.561 1.561 0 1 0 .458 1.1 1.577 1.577 0 0 0-.458-1.1z"/>
            </g>
        </g>
        <g data-name="Grupo 5332">
            <g data-name="Grupo 5331">
                <path data-name="Trazado 22432" d="M13.799 60.114a1.56 1.56 0 1 0 .458 1.1 1.576 1.576 0 0 0-.458-1.1z"/>
            </g>
        </g>
        <g data-name="Grupo 5334">
            <g data-name="Grupo 5333">
                <path data-name="Trazado 22433" d="M41.54 42.165H19.365a1.562 1.562 0 0 0 0 3.123h22.176a1.562 1.562 0 0 0 0-3.123z"/>
            </g>
        </g>
    </g>
</svg>
