<svg xmlns="http://www.w3.org/2000/svg" width="102.5" height="71.813" viewBox="0 0 102.5 71.813">
    <g data-name="Grupo 27159">
        <g data-name="Grupo 5318">
            <g data-name="Grupo 27158">
                <g data-name="Grupo 5231">
                    <path data-name="Trazado 22187" d="M17.5 7a3.126 3.126 0 0 1 3.126 3.126v18.757l-7.816-4.689L5 28.883V10.126A3.126 3.126 0 0 1 8.126 7z" transform="translate(27.316 26.12)" style="stroke-width:2px;stroke:#000;fill:none;stroke-linecap:round;stroke-linejoin:round"/>
                    <path data-name="Trazado 22188" d="M9.265 4.563A3.126 3.126 0 0 1 11.977 3h9.379a3.126 3.126 0 0 1 3.126 3.126v18.757l-1.563-.938" transform="translate(29.27 23.867)" style="stroke-width:2px;stroke:#000;fill:none;stroke-linecap:round;stroke-linejoin:round"/>
                </g>
                <g data-name="Grupo 5232">
                    <g data-name="Grupo 5227">
                        <path data-name="Trazado 22349" d="M12.23 4h18.46l13.844 13.763h32.3a9.2 9.2 0 0 1 9.23 9.175v36.7a9.2 9.2 0 0 1-9.23 9.175H12.23A9.2 9.2 0 0 1 3 63.638V13.175A9.2 9.2 0 0 1 12.23 4" transform="translate(-1.5 -2.499)" style="stroke-width:3px;stroke:#000;fill:none;stroke-linecap:round;stroke-linejoin:round"/>
                        <path data-name="Rectángulo 3210" transform="translate(67.5 30.118)" style="fill:#fff" d="M0 0h35v27H0z"/>
                    </g>
                </g>
            </g>
            <path data-name="Trazado 22382" d="m9 20.815 8.815 8.815L35.446 12" transform="translate(62.345 18.092)" style="stroke:#5bc5f2;stroke-width:3px;fill:none;stroke-linecap:round;stroke-linejoin:round"/>
        </g>
    </g>
</svg>
