<svg xmlns="http://www.w3.org/2000/svg" width="132.954" height="182.358" viewBox="0 0 132.954 182.358">
  <g id="sobresalir" transform="translate(-69.355)">
    <path id="Trazado_22643" data-name="Trazado 22643" d="M173.82,10.2H79.554V185.291H205.243V41.621Z" transform="translate(-6.566 -6.566)" fill="#fff"/>
    <g id="Grupo_28061" data-name="Grupo 28061" transform="translate(91.877 58.122)">
      <path id="Trazado_22644" data-name="Trazado 22644" d="M220.5,163.187H190.242l-57.652,71.2h30.257Z" transform="translate(-132.59 -163.187)" fill="#77bd00"/>
      <path id="Trazado_22645" data-name="Trazado 22645" d="M132.59,163.187h30.257l57.652,71.2H190.242Z" transform="translate(-132.59 -163.187)" fill="#77bd00"/>
    </g>
    <path id="Trazado_22646" data-name="Trazado 22646" d="M201.245,32.486,169.823,1.064A3.634,3.634,0,0,0,167.254,0H72.988a3.632,3.632,0,0,0-3.633,3.633V178.725a3.632,3.632,0,0,0,3.633,3.633H198.676a3.633,3.633,0,0,0,3.633-3.633V35.055A3.634,3.634,0,0,0,201.245,32.486ZM170.886,12.4l19.02,19.019h-19.02ZM76.62,175.092V7.265h87v27.79a3.633,3.633,0,0,0,3.633,3.633h27.79v136.4H76.62Z"/>
    <path id="Trazado_22647" data-name="Trazado 22647" d="M170.706,454.884H112.765a3.633,3.633,0,1,0,0,7.265h57.942a3.633,3.633,0,1,0,0-7.265Z" transform="translate(-25.61 -292.869)"/>
    <path id="Trazado_22648" data-name="Trazado 22648" d="M320.334,454.884h-3.942a3.633,3.633,0,1,0,0,7.265h3.942a3.633,3.633,0,1,0,0-7.265Z" transform="translate(-156.712 -292.869)"/>
    <path id="Trazado_22649" data-name="Trazado 22649" d="M217.211,155.057a3.632,3.632,0,0,0-3.279-2.069H183.675a3.631,3.631,0,0,0-2.823,1.347l-10.874,13.429L159.1,154.335a3.632,3.632,0,0,0-2.823-1.347H126.023a3.633,3.633,0,0,0-2.823,5.918l26.975,33.314L123.2,225.534a3.633,3.633,0,0,0,2.823,5.918H156.28a3.632,3.632,0,0,0,2.823-1.347l10.875-13.429,10.874,13.43a3.632,3.632,0,0,0,2.823,1.347h30.257a3.633,3.633,0,0,0,2.823-5.918L189.78,192.22l26.975-33.314A3.632,3.632,0,0,0,217.211,155.057Zm-62.663,69.13H133.638l21.21-26.194L165.3,210.9Zm30.86,0-51.77-63.934h20.909l51.769,63.934Zm-.3-37.739-10.454-12.911,10.756-13.283h20.909Z" transform="translate(-34.146 -98.499)"/>
  </g>
</svg>
