<svg xmlns="http://www.w3.org/2000/svg" width="44.24" height="56.309" viewBox="0 0 44.24 56.309">
  <g id="Grupo_22083" data-name="Grupo 22083" transform="translate(-1099.371 -1058.876)">
    <path id="Trazado_22415" data-name="Trazado 22415" d="M26.512,42.344V24.24m0,0-9.136,8.678m9.136-8.678,8.966,8.678m5.727,24.391H11.034A6.034,6.034,0,0,1,5,51.274V9.034A6.034,6.034,0,0,1,11.034,3H27.888a3.017,3.017,0,0,1,2.133.884L46.356,20.219a3.017,3.017,0,0,1,.884,2.133V51.274A6.034,6.034,0,0,1,41.206,57.309Z" transform="translate(1095.371 1056.876)" fill="none" stroke="#a9a9a9" stroke-linecap="round" stroke-linejoin="round" stroke-width="2"/>
  </g>
</svg>
