<svg xmlns="http://www.w3.org/2000/svg" width="78.04" height="82.228" viewBox="0 0 78.04 82.228">
  <g id="Grupo_4449" data-name="Grupo 4449" transform="translate(-117.047 -52.772)">
    <g id="Grupo_4458" data-name="Grupo 4458">
      <g id="Grupo_4438" data-name="Grupo 4438">
        <g id="Grupo_4456" data-name="Grupo 4456">
          <g id="entrega-de-pedidos" transform="translate(117.047 52.872)">
            <g id="Grupo_4428" data-name="Grupo 4428" transform="translate(0 -0.1)">
              <path id="Trazado_22280" data-name="Trazado 22280" d="M59.836,77.028a1.175,1.175,0,0,0-1.244,1.244V79.64H2.488V15.574H15.052a13.555,13.555,0,0,0-.5,4.727A1.175,1.175,0,0,0,15.8,21.545H45.406A1.175,1.175,0,0,0,46.65,20.3a13.555,13.555,0,0,0-.5-4.727H58.716v8.584a1.244,1.244,0,1,0,2.488,0V14.33a1.175,1.175,0,0,0-1.244-1.244H45.033A13.006,13.006,0,0,0,39.31,7.862,8.7,8.7,0,0,0,30.6-.1a8.6,8.6,0,0,0-8.708,7.962,12.95,12.95,0,0,0-5.722,5.225H1.244A1.175,1.175,0,0,0,0,14.33V80.884a1.175,1.175,0,0,0,1.244,1.244H59.836a1.175,1.175,0,0,0,1.244-1.244V78.272a1.338,1.338,0,0,0-1.244-1.244ZM23.511,9.852a1.333,1.333,0,0,0,.746-1.493,6.008,6.008,0,0,1,6.22-5.847A6.008,6.008,0,0,1,36.7,8.359a1.333,1.333,0,0,0,.746,1.493,10.051,10.051,0,0,1,6.593,9.206H17.043a10.191,10.191,0,0,1,6.469-9.206Z" transform="translate(0 0.1)"/>
            </g>
            <g id="Grupo_4429" data-name="Grupo 4429" transform="translate(25.626 4.876)">
              <path id="Trazado_22281" data-name="Trazado 22281" d="M25.452,13.6A4.858,4.858,0,0,0,30.3,8.752,4.78,4.78,0,0,0,25.452,3.9a4.852,4.852,0,1,0,0,9.7Zm0-7.215a2.362,2.362,0,0,1,2.364,2.364,2.287,2.287,0,0,1-2.364,2.364,2.364,2.364,0,1,1,0-4.727Z" transform="translate(-20.6 -3.9)"/>
            </g>
            <g id="Grupo_4430" data-name="Grupo 4430" transform="translate(7.34 27.765)">
              <path id="Trazado_22282" data-name="Trazado 22282" d="M16.847,23.544A1.175,1.175,0,0,0,15.6,22.3H7.144A1.175,1.175,0,0,0,5.9,23.544v9.081a1.175,1.175,0,0,0,1.244,1.244H15.6a1.175,1.175,0,0,0,1.244-1.244Zm-2.488,7.713H8.388V24.664h5.971Z" transform="translate(-5.9 -22.3)"/>
            </g>
            <g id="Grupo_4431" data-name="Grupo 4431" transform="translate(7.34 44.435)">
              <path id="Trazado_22283" data-name="Trazado 22283" d="M16.847,36.944A1.175,1.175,0,0,0,15.6,35.7H7.144A1.175,1.175,0,0,0,5.9,36.944v9.081a1.175,1.175,0,0,0,1.244,1.244H15.6a1.175,1.175,0,0,0,1.244-1.244Zm-2.488,7.837H8.388V38.188h5.971Z" transform="translate(-5.9 -35.7)"/>
            </g>
            <g id="Grupo_4432" data-name="Grupo 4432" transform="translate(7.34 61.229)">
              <path id="Trazado_22284" data-name="Trazado 22284" d="M15.6,49.2H7.144A1.175,1.175,0,0,0,5.9,50.444v9.081a1.175,1.175,0,0,0,1.244,1.244H15.6a1.175,1.175,0,0,0,1.244-1.244V50.444A1.247,1.247,0,0,0,15.6,49.2Zm-1.244,9.081H8.388V51.688h5.971Z" transform="translate(-5.9 -49.2)"/>
            </g>
            <g id="Grupo_4434" data-name="Grupo 4434" transform="translate(20.526 32.244)">
              <path id="Trazado_22286" data-name="Trazado 22286" d="M36.777,27.144A1.175,1.175,0,0,0,35.533,25.9H17.744a1.244,1.244,0,0,0,0,2.488H35.533A1.247,1.247,0,0,0,36.777,27.144Z" transform="translate(-16.5 -25.9)"/>
            </g>
            <g id="Grupo_4435" data-name="Grupo 4435" transform="translate(20.401 49.038)">
              <path id="Trazado_22287" data-name="Trazado 22287" d="M27.969,39.4H17.644a1.244,1.244,0,1,0,0,2.488H27.969a1.175,1.175,0,0,0,1.244-1.244A1.247,1.247,0,0,0,27.969,39.4Z" transform="translate(-16.4 -39.4)"/>
            </g>
            <g id="Grupo_4436" data-name="Grupo 4436" transform="translate(19.655 65.707)">
              <path id="Trazado_22288" data-name="Trazado 22288" d="M15.8,54.044a1.175,1.175,0,0,0,1.244,1.244h16.3a1.244,1.244,0,1,0,0-2.488h-16.3A1.338,1.338,0,0,0,15.8,54.044Z" transform="translate(-15.8 -52.8)"/>
            </g>
          </g>
        </g>
      </g>
      <g id="icon_55_" transform="translate(155.547 80.148)">
        <path id="XMLID_13_" d="M25.182,34.444H23.216a1.8,1.8,0,0,1-1.8-1.787v-.831a.372.372,0,0,0-.243-.334.38.38,0,0,0-.417.058l-.6.591a1.814,1.814,0,0,1-2.547,0l-1.39-1.38a1.779,1.779,0,0,1,0-2.526l.6-.591a.361.361,0,0,0,.065-.4.38.38,0,0,0-.343-.256H15.7A1.8,1.8,0,0,1,13.9,25.2V23.25a1.8,1.8,0,0,1,1.8-1.786h.838a.374.374,0,0,0,.337-.242.369.369,0,0,0-.059-.413l-.6-.591a1.78,1.78,0,0,1,0-2.527l1.39-1.379a1.853,1.853,0,0,1,2.547,0l.6.591a.369.369,0,0,0,.4.064.377.377,0,0,0,.259-.34V15.8a1.8,1.8,0,0,1,1.8-1.787h1.965a1.8,1.8,0,0,1,1.8,1.787v.832a.371.371,0,0,0,.243.334.376.376,0,0,0,.417-.058l.6-.591a1.852,1.852,0,0,1,2.546,0l1.39,1.379a1.78,1.78,0,0,1,0,2.527l-.6.591a.361.361,0,0,0-.064.4.38.38,0,0,0,.342.256h.838a1.8,1.8,0,0,1,1.8,1.786V25.2a1.8,1.8,0,0,1-1.8,1.787h-.838a.373.373,0,0,0-.336.241.365.365,0,0,0,.058.414l.6.591a1.777,1.777,0,0,1,0,2.526l-1.39,1.38a1.813,1.813,0,0,1-2.546,0l-.6-.591a.361.361,0,0,0-.4-.064l-.015.006a.377.377,0,0,0-.243.334v.831a1.8,1.8,0,0,1-1.8,1.787ZM21,30.022a1.877,1.877,0,0,1,.71.14,1.8,1.8,0,0,1,1.151,1.663v.831a.356.356,0,0,0,.358.355h1.965a.357.357,0,0,0,.358-.355v-.831a1.8,1.8,0,0,1,1.138-1.658l.041-.017a1.813,1.813,0,0,1,1.944.386l.6.591a.36.36,0,0,0,.506,0l1.39-1.38a.353.353,0,0,0,0-.5l-.6-.591a1.779,1.779,0,0,1-.4-1.915l.029-.07a1.8,1.8,0,0,1,1.664-1.114h.838a.357.357,0,0,0,.358-.355V23.25a.357.357,0,0,0-.358-.355h-.838a1.808,1.808,0,0,1-1.67-1.13,1.785,1.785,0,0,1,.372-1.97l.6-.591a.354.354,0,0,0,0-.5l-1.39-1.379a.358.358,0,0,0-.505,0l-.6.591a1.847,1.847,0,0,1-3.123-1.288V15.8a.357.357,0,0,0-.358-.355H23.217a.357.357,0,0,0-.358.355v.832a1.8,1.8,0,0,1-1.139,1.659,1.82,1.82,0,0,1-1.984-.37l-.6-.591a.359.359,0,0,0-.506,0L17.245,18.7a.354.354,0,0,0,0,.5l.6.591a1.78,1.78,0,0,1,.378,1.957A1.814,1.814,0,0,1,16.542,22.9H15.7a.357.357,0,0,0-.358.355V25.2a.357.357,0,0,0,.358.355h.838a1.81,1.81,0,0,1,1.671,1.129,1.786,1.786,0,0,1-.373,1.97l-.6.591a.353.353,0,0,0,0,.5l1.39,1.38a.36.36,0,0,0,.506,0l.6-.591A1.782,1.782,0,0,1,21,30.022Z" transform="translate(-2.805 -2.699)" fill="#5bc5f2" stroke="#5bc5f2" stroke-width="0.5"/>
        <path id="XMLID_10_" d="M26.519,30.511A3.981,3.981,0,1,1,30.53,26.53,4,4,0,0,1,26.519,30.511Zm0-6.53a2.549,2.549,0,1,0,2.569,2.549A2.561,2.561,0,0,0,26.519,23.981Z" transform="translate(-5.126 -5.002)" fill="#5bc5f2" stroke="#5bc5f2" stroke-width="0.5"/>
        <g id="XMLID_2100_" transform="translate(3.5 4)">
          <path id="XMLID_9_" d="M7.061,20.363a.725.725,0,0,1-.1-.007.717.717,0,0,1-.611-.811A15.97,15.97,0,0,1,18.724,6.34a.716.716,0,1,1,.309,1.4A14.527,14.527,0,0,0,7.774,19.749a.72.72,0,0,1-.713.613Z" transform="translate(-4.266 -4.626)" fill="#5bc5f2" stroke="#5bc5f2" stroke-width="0.5"/>
          <path id="XMLID_8_" d="M18.865,43.511a.762.762,0,0,1-.156-.017A15.917,15.917,0,0,1,6.29,29.981.722.722,0,0,1,7.722,29.8,14.48,14.48,0,0,0,19.02,42.1a.715.715,0,0,1-.155,1.415Z" transform="translate(-4.251 -10.79)" fill="#5bc5f2" stroke="#5bc5f2" stroke-width="0.5"/>
          <path id="XMLID_7_" d="M31.387,43.634a.716.716,0,0,1-.123-1.421A14.571,14.571,0,0,0,43.161,29.8a.722.722,0,0,1,1.432.177,16.019,16.019,0,0,1-13.08,13.644.833.833,0,0,1-.126.01Z" transform="translate(-10.826 -10.789)" fill="#5bc5f2" stroke="#5bc5f2" stroke-width="0.5"/>
          <path id="XMLID_6_" d="M43.836,20.317a.719.719,0,0,1-.713-.613A14.437,14.437,0,0,0,31.264,7.573a.716.716,0,1,1,.249-1.41A15.868,15.868,0,0,1,44.55,19.5a.716.716,0,0,1-.61.811A.629.629,0,0,1,43.836,20.317Z" transform="translate(-10.826 -4.581)" fill="#5bc5f2" stroke="#5bc5f2" stroke-width="0.5"/>
          <path id="XMLID_5_" d="M21.458,9.854a.72.72,0,0,1-.678-.96l.934-2.556-2.638-.948a.715.715,0,0,1-.433-.917.724.724,0,0,1,.924-.429l3.316,1.192a.726.726,0,0,1,.408.37.711.711,0,0,1,.025.547l-1.179,3.23a.721.721,0,0,1-.679.473Z" transform="translate(-7.572 -4)" fill="#5bc5f2" stroke="#5bc5f2" stroke-width="0.5"/>
          <path id="XMLID_4_" d="M47.742,24.358a.716.716,0,0,1-.356-.094l-3.007-1.7a.711.711,0,0,1-.269-.976.723.723,0,0,1,.984-.267l2.38,1.347,1.391-2.419a.723.723,0,0,1,.984-.267.711.711,0,0,1,.269.976L48.369,24a.722.722,0,0,1-.627.362Z" transform="translate(-14.425 -8.284)" fill="#5bc5f2" stroke="#5bc5f2" stroke-width="0.5"/>
          <path id="XMLID_3_" d="M33.374,49.669a.721.721,0,0,1-.463-.167l-2.7-2.249a.712.712,0,0,1-.089-1.009l2.225-2.632a.727.727,0,0,1,1.017-.089.713.713,0,0,1,.09,1.009l-1.761,2.084,2.15,1.789a.713.713,0,0,1,.09,1.009A.729.729,0,0,1,33.374,49.669Z" transform="translate(-10.633 -14.613)" fill="#5bc5f2" stroke="#5bc5f2" stroke-width="0.5"/>
          <path id="XMLID_2_" d="M4.221,33.062a.717.717,0,0,1-.583-1.138l2.076-2.83a.724.724,0,0,1,1.008-.157l2.8,2.021a.714.714,0,0,1,.159,1,.726.726,0,0,1-1.008.157l-2.216-1.6L4.8,32.767a.721.721,0,0,1-.584.3Z" transform="translate(-3.5 -10.688)" fill="#5bc5f2" stroke="#5bc5f2" stroke-width="0.5"/>
        </g>
      </g>
    </g>
  </g>
</svg>
