<svg xmlns="http://www.w3.org/2000/svg" width="76.248" height="81.518" viewBox="0 0 76.248 81.518">
  <g id="Grupo_27165" data-name="Grupo 27165" transform="translate(-1289 -378.208)">
    <g id="entrega-de-pedidos" transform="translate(1289 378.308)">
      <g id="Grupo_4428" data-name="Grupo 4428" transform="translate(0 -0.1)">
        <path id="Trazado_22280" data-name="Trazado 22280" d="M59.319,76.362a1.165,1.165,0,0,0-1.233,1.233v1.357H2.467V15.439H14.922a13.438,13.438,0,0,0-.493,4.686,1.165,1.165,0,0,0,1.233,1.233H45.014a1.165,1.165,0,0,0,1.233-1.233,13.438,13.438,0,0,0-.493-4.686H58.209v8.509a1.233,1.233,0,0,0,2.466,0V14.206a1.165,1.165,0,0,0-1.233-1.233h-14.8a12.894,12.894,0,0,0-5.673-5.18A8.621,8.621,0,0,0,30.338-.1a8.528,8.528,0,0,0-8.633,7.893,12.838,12.838,0,0,0-5.673,5.18H1.233A1.165,1.165,0,0,0,0,14.206V80.185a1.165,1.165,0,0,0,1.233,1.233H59.319a1.165,1.165,0,0,0,1.233-1.233v-2.59a1.326,1.326,0,0,0-1.233-1.233ZM23.308,9.766a1.321,1.321,0,0,0,.74-1.48,5.957,5.957,0,0,1,6.166-5.8,5.957,5.957,0,0,1,6.166,5.8,1.321,1.321,0,0,0,.74,1.48,9.964,9.964,0,0,1,6.536,9.126H16.9A10.1,10.1,0,0,1,23.308,9.766Z" transform="translate(0 0.1)"/>
      </g>
      <g id="Grupo_4429" data-name="Grupo 4429" transform="translate(25.405 4.833)">
        <path id="Trazado_22281" data-name="Trazado 22281" d="M25.41,13.519a4.816,4.816,0,0,0,4.81-4.81A4.739,4.739,0,0,0,25.41,3.9a4.81,4.81,0,1,0,0,9.619Zm0-7.153A2.342,2.342,0,0,1,27.753,8.71a2.268,2.268,0,0,1-2.343,2.343,2.343,2.343,0,1,1,0-4.686Z" transform="translate(-20.6 -3.9)"/>
      </g>
      <g id="Grupo_4430" data-name="Grupo 4430" transform="translate(7.276 27.525)">
        <path id="Trazado_22282" data-name="Trazado 22282" d="M16.753,23.533A1.165,1.165,0,0,0,15.519,22.3H7.133A1.165,1.165,0,0,0,5.9,23.533v9a1.165,1.165,0,0,0,1.233,1.233h8.386a1.165,1.165,0,0,0,1.233-1.233Zm-2.467,7.646H8.366V24.643h5.92Z" transform="translate(-5.9 -22.3)"/>
      </g>
      <g id="Grupo_4431" data-name="Grupo 4431" transform="translate(7.276 44.05)">
        <path id="Trazado_22283" data-name="Trazado 22283" d="M16.753,36.933A1.165,1.165,0,0,0,15.519,35.7H7.133A1.165,1.165,0,0,0,5.9,36.933v9a1.165,1.165,0,0,0,1.233,1.233h8.386a1.165,1.165,0,0,0,1.233-1.233ZM14.286,44.7H8.366V38.167h5.92Z" transform="translate(-5.9 -35.7)"/>
      </g>
      <g id="Grupo_4432" data-name="Grupo 4432" transform="translate(7.276 60.699)">
        <path id="Trazado_22284" data-name="Trazado 22284" d="M15.519,49.2H7.133A1.165,1.165,0,0,0,5.9,50.433v9a1.165,1.165,0,0,0,1.233,1.233h8.386a1.165,1.165,0,0,0,1.233-1.233v-9A1.236,1.236,0,0,0,15.519,49.2Zm-1.233,9H8.366V51.667h5.92Z" transform="translate(-5.9 -49.2)"/>
      </g>
      <g id="Grupo_4434" data-name="Grupo 4434" transform="translate(20.349 31.965)">
        <path id="Trazado_22286" data-name="Trazado 22286" d="M36.6,27.133A1.165,1.165,0,0,0,35.369,25.9H17.733a1.233,1.233,0,1,0,0,2.466H35.369A1.236,1.236,0,0,0,36.6,27.133Z" transform="translate(-16.5 -25.9)"/>
      </g>
      <g id="Grupo_4435" data-name="Grupo 4435" transform="translate(20.225 48.613)">
        <path id="Trazado_22287" data-name="Trazado 22287" d="M27.869,39.4H17.633a1.233,1.233,0,1,0,0,2.466H27.869A1.165,1.165,0,0,0,29.1,40.633,1.236,1.236,0,0,0,27.869,39.4Z" transform="translate(-16.4 -39.4)"/>
      </g>
      <g id="Grupo_4436" data-name="Grupo 4436" transform="translate(19.485 65.139)">
        <path id="Trazado_22288" data-name="Trazado 22288" d="M15.8,54.033a1.165,1.165,0,0,0,1.233,1.233H33.189a1.233,1.233,0,0,0,0-2.466H17.033A1.326,1.326,0,0,0,15.8,54.033Z" transform="translate(-15.8 -52.8)"/>
      </g>
      <path id="Trazado_22382" data-name="Trazado 22382" d="M9,22.482,19.482,32.964,40.446,12" transform="translate(33.681 27.365)" fill="none" stroke="#5bc5f2" stroke-linecap="round" stroke-linejoin="round" stroke-width="3"/>
    </g>
  </g>
</svg>
