<svg xmlns="http://www.w3.org/2000/svg" width="77.963" height="82.228" viewBox="0 0 77.963 82.228">
  <g id="Grupo_4449" data-name="Grupo 4449" transform="translate(-117.047 -52.772)">
    <g id="Grupo_4438" data-name="Grupo 4438">
      <g id="entrega-de-pedidos" transform="translate(117.047 52.872)">
        <g id="Grupo_4428" data-name="Grupo 4428" transform="translate(0 -0.1)">
          <path id="Trazado_22280" data-name="Trazado 22280" d="M59.836,77.028a1.175,1.175,0,0,0-1.244,1.244V79.64H2.488V15.574H15.052a13.555,13.555,0,0,0-.5,4.727A1.175,1.175,0,0,0,15.8,21.545H45.406A1.175,1.175,0,0,0,46.65,20.3a13.555,13.555,0,0,0-.5-4.727H58.716v8.584a1.244,1.244,0,1,0,2.488,0V14.33a1.175,1.175,0,0,0-1.244-1.244H45.033A13.006,13.006,0,0,0,39.31,7.862,8.7,8.7,0,0,0,30.6-.1a8.6,8.6,0,0,0-8.708,7.962,12.95,12.95,0,0,0-5.722,5.225H1.244A1.175,1.175,0,0,0,0,14.33V80.884a1.175,1.175,0,0,0,1.244,1.244H59.836a1.175,1.175,0,0,0,1.244-1.244V78.272a1.338,1.338,0,0,0-1.244-1.244ZM23.511,9.852a1.333,1.333,0,0,0,.746-1.493,6.008,6.008,0,0,1,6.22-5.847A6.008,6.008,0,0,1,36.7,8.359a1.333,1.333,0,0,0,.746,1.493,10.051,10.051,0,0,1,6.593,9.206H17.043a10.191,10.191,0,0,1,6.469-9.206Z" transform="translate(0 0.1)"/>
        </g>
        <g id="Grupo_4429" data-name="Grupo 4429" transform="translate(25.626 4.876)">
          <path id="Trazado_22281" data-name="Trazado 22281" d="M25.452,13.6A4.858,4.858,0,0,0,30.3,8.752,4.78,4.78,0,0,0,25.452,3.9a4.852,4.852,0,1,0,0,9.7Zm0-7.215a2.362,2.362,0,0,1,2.364,2.364,2.287,2.287,0,0,1-2.364,2.364,2.364,2.364,0,1,1,0-4.727Z" transform="translate(-20.6 -3.9)"/>
        </g>
        <g id="Grupo_4430" data-name="Grupo 4430" transform="translate(7.34 27.765)">
          <path id="Trazado_22282" data-name="Trazado 22282" d="M16.847,23.544A1.175,1.175,0,0,0,15.6,22.3H7.144A1.175,1.175,0,0,0,5.9,23.544v9.081a1.175,1.175,0,0,0,1.244,1.244H15.6a1.175,1.175,0,0,0,1.244-1.244Zm-2.488,7.713H8.388V24.664h5.971Z" transform="translate(-5.9 -22.3)"/>
        </g>
        <g id="Grupo_4431" data-name="Grupo 4431" transform="translate(7.34 44.435)">
          <path id="Trazado_22283" data-name="Trazado 22283" d="M16.847,36.944A1.175,1.175,0,0,0,15.6,35.7H7.144A1.175,1.175,0,0,0,5.9,36.944v9.081a1.175,1.175,0,0,0,1.244,1.244H15.6a1.175,1.175,0,0,0,1.244-1.244Zm-2.488,7.837H8.388V38.188h5.971Z" transform="translate(-5.9 -35.7)"/>
        </g>
        <g id="Grupo_4432" data-name="Grupo 4432" transform="translate(7.34 61.229)">
          <path id="Trazado_22284" data-name="Trazado 22284" d="M15.6,49.2H7.144A1.175,1.175,0,0,0,5.9,50.444v9.081a1.175,1.175,0,0,0,1.244,1.244H15.6a1.175,1.175,0,0,0,1.244-1.244V50.444A1.247,1.247,0,0,0,15.6,49.2Zm-1.244,9.081H8.388V51.688h5.971Z" transform="translate(-5.9 -49.2)"/>
        </g>
        <g id="Grupo_4434" data-name="Grupo 4434" transform="translate(20.526 32.244)">
          <path id="Trazado_22286" data-name="Trazado 22286" d="M36.777,27.144A1.175,1.175,0,0,0,35.533,25.9H17.744a1.244,1.244,0,0,0,0,2.488H35.533A1.247,1.247,0,0,0,36.777,27.144Z" transform="translate(-16.5 -25.9)"/>
        </g>
        <g id="Grupo_4435" data-name="Grupo 4435" transform="translate(20.401 49.038)">
          <path id="Trazado_22287" data-name="Trazado 22287" d="M27.969,39.4H17.644a1.244,1.244,0,1,0,0,2.488H27.969a1.175,1.175,0,0,0,1.244-1.244A1.247,1.247,0,0,0,27.969,39.4Z" transform="translate(-16.4 -39.4)"/>
        </g>
        <g id="Grupo_4436" data-name="Grupo 4436" transform="translate(19.655 65.707)">
          <path id="Trazado_22288" data-name="Trazado 22288" d="M15.8,54.044a1.175,1.175,0,0,0,1.244,1.244h16.3a1.244,1.244,0,1,0,0-2.488h-16.3A1.338,1.338,0,0,0,15.8,54.044Z" transform="translate(-15.8 -52.8)"/>
        </g>
      </g>
      <path id="cliente" d="M12.042,8.149a.764.764,0,0,0,.25.838l2.239,1.8-.754,2.772a.77.77,0,0,0,1.165.846l2.4-1.573,2.4,1.573a.77.77,0,0,0,1.164-.846l-.754-2.772,2.239-1.8a.77.77,0,0,0-.445-1.369l-2.869-.14-1.02-2.686a.77.77,0,0,0-1.439,0l-1.02,2.686-2.869.14a.764.764,0,0,0-.695.531Zm3.823.4a.769.769,0,0,0,.682-.5l.8-2.1.8,2.1a.77.77,0,0,0,.682.5l2.247.11L19.32,10.07a.77.77,0,0,0-.261.8l.59,2.171-1.883-1.232a.77.77,0,0,0-.843,0l-1.883,1.232.59-2.171a.77.77,0,0,0-.261-.8l-1.754-1.41ZM16.8,2.532V.542a.542.542,0,1,1,1.084,0v1.99a.542.542,0,1,1-1.084,0Zm3.3,3.213a.542.542,0,0,1,.04-.766l2.217-2a.542.542,0,1,1,.726.806l-2.218,2a.542.542,0,0,1-.766-.04ZM11.563,3.022a.542.542,0,0,1,.766-.04l2.218,2a.542.542,0,0,1-.726.806l-2.218-2a.542.542,0,0,1-.04-.766ZM24.3,8.987l2.239,1.8-.754,2.772a.77.77,0,0,0,1.165.846l2.4-1.573,2.4,1.573a.77.77,0,0,0,1.164-.846l-.754-2.772,2.239-1.8a.77.77,0,0,0-.445-1.369L31.1,7.478l-1.02-2.686a.77.77,0,0,0-1.44,0l-1.02,2.686-2.869.14A.77.77,0,0,0,24.3,8.987Zm3.573-.436a.77.77,0,0,0,.682-.5l.8-2.1.8,2.1a.77.77,0,0,0,.682.5l2.247.11L31.331,10.07a.77.77,0,0,0-.261.8l.59,2.171-1.883-1.232a.77.77,0,0,0-.843,0l-1.883,1.232.59-2.171a.77.77,0,0,0-.261-.8L25.628,8.66ZM.282,8.987l2.239,1.8-.754,2.772a.77.77,0,0,0,1.165.846l2.4-1.573,2.4,1.573A.77.77,0,0,0,8.9,13.558L8.15,10.786l2.239-1.8a.77.77,0,0,0-.445-1.369l-2.869-.14L6.056,4.792a.77.77,0,0,0-1.44,0L3.6,7.478l-2.869.14A.77.77,0,0,0,.282,8.987Zm3.573-.436a.77.77,0,0,0,.682-.5l.8-2.1.8,2.1a.77.77,0,0,0,.682.5l2.247.11L7.31,10.07a.77.77,0,0,0-.261.8l.59,2.171L5.757,11.811a.77.77,0,0,0-.843,0L3.031,13.043l.59-2.171a.77.77,0,0,0-.261-.8L1.607,8.66ZM34.612,28.8a6.223,6.223,0,0,0-2.2-3.115A6.15,6.15,0,0,0,30.8,24.82a3.389,3.389,0,1,0-4.178,0,6.107,6.107,0,0,0-2.713,1.935,8.077,8.077,0,0,0-4.171-3.018,4.347,4.347,0,1,0-4.79,0,8.077,8.077,0,0,0-4.171,3.018,6.106,6.106,0,0,0-2.713-1.936,3.388,3.388,0,1,0-4.178,0,6.151,6.151,0,0,0-1.608.867A6.223,6.223,0,0,0,.079,28.8a1.788,1.788,0,0,0,.275,1.626,1.788,1.788,0,0,0,1.472.744h7.5v.979A2.556,2.556,0,0,0,11.876,34.7h10.94a2.556,2.556,0,0,0,2.553-2.553v-.978h7.5a1.829,1.829,0,0,0,1.747-2.37Zm-5.9-8.952a2.3,2.3,0,1,1-2.3,2.3A2.307,2.307,0,0,1,28.716,19.85Zm-14.632.26a3.262,3.262,0,1,1,3.264,3.262h0a3.266,3.266,0,0,1-3.26-3.262ZM5.976,19.85a2.3,2.3,0,1,1-2.3,2.3A2.307,2.307,0,0,1,5.976,19.85ZM9.393,30.087H1.827a.71.71,0,0,1-.6-.3.71.71,0,0,1-.112-.662,5.089,5.089,0,0,1,9.055-1.372A8.024,8.024,0,0,0,9.393,30.087Zm14.892,2.063a1.47,1.47,0,0,1-1.469,1.469H11.876a1.47,1.47,0,0,1-1.469-1.469V30.659a6.964,6.964,0,0,1,6.937-6.2h0a6.965,6.965,0,0,1,6.937,6.2Zm9.18-2.365a.71.71,0,0,1-.6.3H25.3a8.029,8.029,0,0,0-.778-2.337,5.089,5.089,0,0,1,9.055,1.372A.71.71,0,0,1,33.465,29.785Z" transform="translate(160.051 85.296)" fill="#5bc5f2" stroke="#5bc5f2" stroke-width="0.5"/>
    </g>
  </g>
</svg>
