<svg xmlns="http://www.w3.org/2000/svg" width="78.447" height="82.228" viewBox="0 0 78.447 82.228">
  <g id="Grupo_4450" data-name="Grupo 4450" transform="translate(-117.047 -52.772)">
    <g id="Grupo_4438" data-name="Grupo 4438">
      <g id="Grupo_4442" data-name="Grupo 4442">
        <g id="entrega-de-pedidos" transform="translate(117.047 52.872)">
          <g id="Grupo_4428" data-name="Grupo 4428" transform="translate(0 -0.1)">
            <path id="Trazado_22280" data-name="Trazado 22280" d="M59.836,77.028a1.175,1.175,0,0,0-1.244,1.244V79.64H2.488V15.574H15.052a13.555,13.555,0,0,0-.5,4.727A1.175,1.175,0,0,0,15.8,21.545H45.406A1.175,1.175,0,0,0,46.65,20.3a13.555,13.555,0,0,0-.5-4.727H58.716v8.584a1.244,1.244,0,1,0,2.488,0V14.33a1.175,1.175,0,0,0-1.244-1.244H45.033A13.006,13.006,0,0,0,39.31,7.862,8.7,8.7,0,0,0,30.6-.1a8.6,8.6,0,0,0-8.708,7.962,12.95,12.95,0,0,0-5.722,5.225H1.244A1.175,1.175,0,0,0,0,14.33V80.884a1.175,1.175,0,0,0,1.244,1.244H59.836a1.175,1.175,0,0,0,1.244-1.244V78.272a1.338,1.338,0,0,0-1.244-1.244ZM23.511,9.852a1.333,1.333,0,0,0,.746-1.493,6.008,6.008,0,0,1,6.22-5.847A6.008,6.008,0,0,1,36.7,8.359a1.333,1.333,0,0,0,.746,1.493,10.051,10.051,0,0,1,6.593,9.206H17.043a10.191,10.191,0,0,1,6.469-9.206Z" transform="translate(0 0.1)"/>
          </g>
          <g id="Grupo_4429" data-name="Grupo 4429" transform="translate(25.626 4.876)">
            <path id="Trazado_22281" data-name="Trazado 22281" d="M25.452,13.6A4.858,4.858,0,0,0,30.3,8.752,4.78,4.78,0,0,0,25.452,3.9a4.852,4.852,0,1,0,0,9.7Zm0-7.215a2.362,2.362,0,0,1,2.364,2.364,2.287,2.287,0,0,1-2.364,2.364,2.364,2.364,0,1,1,0-4.727Z" transform="translate(-20.6 -3.9)"/>
          </g>
          <g id="Grupo_4430" data-name="Grupo 4430" transform="translate(7.34 27.765)">
            <path id="Trazado_22282" data-name="Trazado 22282" d="M16.847,23.544A1.175,1.175,0,0,0,15.6,22.3H7.144A1.175,1.175,0,0,0,5.9,23.544v9.081a1.175,1.175,0,0,0,1.244,1.244H15.6a1.175,1.175,0,0,0,1.244-1.244Zm-2.488,7.713H8.388V24.664h5.971Z" transform="translate(-5.9 -22.3)"/>
          </g>
          <g id="Grupo_4431" data-name="Grupo 4431" transform="translate(7.34 44.435)">
            <path id="Trazado_22283" data-name="Trazado 22283" d="M16.847,36.944A1.175,1.175,0,0,0,15.6,35.7H7.144A1.175,1.175,0,0,0,5.9,36.944v9.081a1.175,1.175,0,0,0,1.244,1.244H15.6a1.175,1.175,0,0,0,1.244-1.244Zm-2.488,7.837H8.388V38.188h5.971Z" transform="translate(-5.9 -35.7)"/>
          </g>
          <g id="Grupo_4432" data-name="Grupo 4432" transform="translate(7.34 61.229)">
            <path id="Trazado_22284" data-name="Trazado 22284" d="M15.6,49.2H7.144A1.175,1.175,0,0,0,5.9,50.444v9.081a1.175,1.175,0,0,0,1.244,1.244H15.6a1.175,1.175,0,0,0,1.244-1.244V50.444A1.247,1.247,0,0,0,15.6,49.2Zm-1.244,9.081H8.388V51.688h5.971Z" transform="translate(-5.9 -49.2)"/>
          </g>
          <g id="Grupo_4434" data-name="Grupo 4434" transform="translate(20.526 32.244)">
            <path id="Trazado_22286" data-name="Trazado 22286" d="M36.777,27.144A1.175,1.175,0,0,0,35.533,25.9H17.744a1.244,1.244,0,0,0,0,2.488H35.533A1.247,1.247,0,0,0,36.777,27.144Z" transform="translate(-16.5 -25.9)"/>
          </g>
          <g id="Grupo_4435" data-name="Grupo 4435" transform="translate(20.401 49.038)">
            <path id="Trazado_22287" data-name="Trazado 22287" d="M27.969,39.4H17.644a1.244,1.244,0,1,0,0,2.488H27.969a1.175,1.175,0,0,0,1.244-1.244A1.247,1.247,0,0,0,27.969,39.4Z" transform="translate(-16.4 -39.4)"/>
          </g>
          <g id="Grupo_4436" data-name="Grupo 4436" transform="translate(19.655 65.707)">
            <path id="Trazado_22288" data-name="Trazado 22288" d="M15.8,54.044a1.175,1.175,0,0,0,1.244,1.244h16.3a1.244,1.244,0,1,0,0-2.488h-16.3A1.338,1.338,0,0,0,15.8,54.044Z" transform="translate(-15.8 -52.8)"/>
          </g>
        </g>
        <g id="Grupo_4440" data-name="Grupo 4440" transform="translate(159.047 83.553)">
          <g id="Grupo_4440-2" data-name="Grupo 4440" transform="translate(0 0)">
            <path id="Trazado_22289" data-name="Trazado 22289" d="M417.043,377.008a1.424,1.424,0,0,0-1.992.293c-.258.347-.534.687-.821,1.012a1.424,1.424,0,1,0,2.133,1.886c.339-.384.667-.787.972-1.2A1.424,1.424,0,0,0,417.043,377.008Z" transform="translate(-384.411 -349.909)" fill="#5bc5f2"/>
            <path id="Trazado_22290" data-name="Trazado 22290" d="M464.6,286.457a1.424,1.424,0,0,0-1.694,1.088c-.092.423-.2.846-.331,1.259a1.424,1.424,0,1,0,2.72.841c.151-.49.283-.992.393-1.493A1.424,1.424,0,0,0,464.6,286.457Z" transform="translate(-429.591 -266.035)" fill="#5bc5f2"/>
            <path id="Trazado_22291" data-name="Trazado 22291" d="M336.027,442.374c-.378.211-.769.408-1.163.586a1.424,1.424,0,1,0,1.172,2.6c.467-.211.931-.445,1.379-.7a1.424,1.424,0,1,0-1.388-2.486Z" transform="translate(-310.248 -410.715)" fill="#5bc5f2"/>
            <path id="Trazado_22292" data-name="Trazado 22292" d="M162.441,77.424v10.8l-5.221,5.221a1.424,1.424,0,0,0,2.014,2.013l5.638-5.638a1.424,1.424,0,0,0,.417-1.007V77.424a1.424,1.424,0,1,0-2.847,0Z" transform="translate(-145.641 -70.59)" fill="#5bc5f2"/>
            <path id="Trazado_22293" data-name="Trazado 22293" d="M35.023,3.061A1.424,1.424,0,0,0,33.6,4.485V8.438A18.225,18.225,0,1,0,18.224,36.447l.036,0,.036,0c.513,0,1.031-.022,1.54-.064a1.424,1.424,0,1,0-.238-2.837c-.43.036-.868.054-1.3.054l-.036,0-.036,0A15.376,15.376,0,1,1,31.46,10.393H27.545a1.424,1.424,0,0,0,0,2.847h4.346a4.528,4.528,0,0,0,2.369-.666,1.421,1.421,0,0,0,.128-.082,4.555,4.555,0,0,0,2.059-3.808v-4.2A1.424,1.424,0,0,0,35.023,3.061Z" transform="translate(0 0)" fill="#5bc5f2"/>
          </g>
        </g>
      </g>
    </g>
  </g>
</svg>
