<svg xmlns="http://www.w3.org/2000/svg" width="74.485" height="81.518" viewBox="0 0 74.485 81.518">
    <g data-name="Grupo 27163">
        <g data-name="Grupo 4428">
            <path data-name="Trazado 22280" d="M59.319 76.462a1.165 1.165 0 0 0-1.233 1.233v1.357H2.467V15.539h12.455a13.438 13.438 0 0 0-.493 4.686 1.165 1.165 0 0 0 1.233 1.233h29.352a1.165 1.165 0 0 0 1.233-1.233 13.438 13.438 0 0 0-.493-4.686h12.455v8.509a1.233 1.233 0 0 0 2.466 0v-9.742a1.165 1.165 0 0 0-1.233-1.233h-14.8a12.894 12.894 0 0 0-5.673-5.18A8.621 8.621 0 0 0 30.338 0a8.528 8.528 0 0 0-8.633 7.893 12.838 12.838 0 0 0-5.673 5.18H1.233A1.165 1.165 0 0 0 0 14.306v65.979a1.165 1.165 0 0 0 1.233 1.233h58.086a1.165 1.165 0 0 0 1.233-1.233v-2.59a1.326 1.326 0 0 0-1.233-1.233zM23.308 9.866a1.321 1.321 0 0 0 .74-1.48 5.957 5.957 0 0 1 6.166-5.8 5.957 5.957 0 0 1 6.166 5.8 1.321 1.321 0 0 0 .74 1.48 9.964 9.964 0 0 1 6.536 9.126H16.9a10.1 10.1 0 0 1 6.408-9.126z"/>
        </g>
        <g data-name="Grupo 4429">
            <path data-name="Trazado 22281" d="M30.215 14.552a4.816 4.816 0 0 0 4.81-4.81 4.739 4.739 0 0 0-4.81-4.809 4.81 4.81 0 1 0 0 9.619zm0-7.153a2.342 2.342 0 0 1 2.343 2.344 2.268 2.268 0 0 1-2.343 2.343 2.343 2.343 0 1 1 0-4.686z"/>
        </g>
        <g data-name="Grupo 4430">
            <path data-name="Trazado 22282" d="M18.129 28.858a1.165 1.165 0 0 0-1.234-1.233H8.509a1.165 1.165 0 0 0-1.233 1.233v9a1.165 1.165 0 0 0 1.233 1.233h8.386a1.165 1.165 0 0 0 1.233-1.233zm-2.467 7.646h-5.92v-6.536h5.92z"/>
        </g>
        <g data-name="Grupo 4431">
            <path data-name="Trazado 22283" d="M18.129 45.383a1.165 1.165 0 0 0-1.234-1.233H8.509a1.165 1.165 0 0 0-1.233 1.233v9a1.165 1.165 0 0 0 1.233 1.233h8.386a1.165 1.165 0 0 0 1.233-1.233zm-2.467 7.767h-5.92v-6.533h5.92z"/>
        </g>
        <g data-name="Grupo 4432">
            <path data-name="Trazado 22284" d="M16.895 60.799H8.509a1.165 1.165 0 0 0-1.233 1.233v9a1.165 1.165 0 0 0 1.233 1.233h8.386a1.165 1.165 0 0 0 1.233-1.233v-9a1.236 1.236 0 0 0-1.233-1.233zm-1.233 9h-5.92v-6.533h5.92z"/>
        </g>
        <g data-name="Grupo 4434">
            <path data-name="Trazado 22286" d="M40.449 33.298a1.165 1.165 0 0 0-1.231-1.233H21.582a1.233 1.233 0 1 0 0 2.466h17.636a1.236 1.236 0 0 0 1.231-1.233z"/>
        </g>
        <g data-name="Grupo 4435">
            <path data-name="Trazado 22287" d="M31.694 48.713H21.458a1.233 1.233 0 1 0 0 2.466h10.236a1.165 1.165 0 0 0 1.231-1.233 1.236 1.236 0 0 0-1.231-1.233z"/>
        </g>
        <g data-name="Grupo 4436">
            <path data-name="Trazado 22288" d="M19.485 66.472a1.165 1.165 0 0 0 1.233 1.233h16.156a1.233 1.233 0 0 0 0-2.466H20.718a1.326 1.326 0 0 0-1.233 1.233z"/>
        </g>
        <g data-name="Grupo 27164" transform="translate(44.441 36.317)">
            <circle data-name="Elipse 638" cx="10.471" cy="10.471" r="10.471" style="fill:none;stroke:#5bc5f2;stroke-linecap:round;stroke-linejoin:round;stroke-width:3px"/>
            <path data-name="Línea 1174" transform="translate(18.149 18.149)" style="fill:none;stroke:#5bc5f2;stroke-linecap:round;stroke-linejoin:round;stroke-width:3px" d="M9.773 9.773 0 0"/>
        </g>
    </g>
</svg>
