<svg xmlns="http://www.w3.org/2000/svg" width="80.717" height="82.228" viewBox="0 0 80.717 82.228">
  <g id="Grupo_4452" data-name="Grupo 4452" transform="translate(-117.047 -52.772)">
    <g id="Grupo_4447" data-name="Grupo 4447">
      <g id="Grupo_4438" data-name="Grupo 4438">
        <g id="Grupo_4442" data-name="Grupo 4442">
          <g id="entrega-de-pedidos" transform="translate(117.047 52.872)">
            <g id="Grupo_4428" data-name="Grupo 4428" transform="translate(0 -0.1)">
              <path id="Trazado_22280" data-name="Trazado 22280" d="M59.836,77.028a1.175,1.175,0,0,0-1.244,1.244V79.64H2.488V15.574H15.052a13.555,13.555,0,0,0-.5,4.727A1.175,1.175,0,0,0,15.8,21.545H45.406A1.175,1.175,0,0,0,46.65,20.3a13.555,13.555,0,0,0-.5-4.727H58.716v8.584a1.244,1.244,0,1,0,2.488,0V14.33a1.175,1.175,0,0,0-1.244-1.244H45.033A13.006,13.006,0,0,0,39.31,7.862,8.7,8.7,0,0,0,30.6-.1a8.6,8.6,0,0,0-8.708,7.962,12.95,12.95,0,0,0-5.722,5.225H1.244A1.175,1.175,0,0,0,0,14.33V80.884a1.175,1.175,0,0,0,1.244,1.244H59.836a1.175,1.175,0,0,0,1.244-1.244V78.272a1.338,1.338,0,0,0-1.244-1.244ZM23.511,9.852a1.333,1.333,0,0,0,.746-1.493,6.008,6.008,0,0,1,6.22-5.847A6.008,6.008,0,0,1,36.7,8.359a1.333,1.333,0,0,0,.746,1.493,10.051,10.051,0,0,1,6.593,9.206H17.043a10.191,10.191,0,0,1,6.469-9.206Z" transform="translate(0 0.1)"/>
            </g>
            <g id="Grupo_4429" data-name="Grupo 4429" transform="translate(25.626 4.876)">
              <path id="Trazado_22281" data-name="Trazado 22281" d="M25.452,13.6A4.858,4.858,0,0,0,30.3,8.752,4.78,4.78,0,0,0,25.452,3.9a4.852,4.852,0,1,0,0,9.7Zm0-7.215a2.362,2.362,0,0,1,2.364,2.364,2.287,2.287,0,0,1-2.364,2.364,2.364,2.364,0,1,1,0-4.727Z" transform="translate(-20.6 -3.9)"/>
            </g>
            <g id="Grupo_4430" data-name="Grupo 4430" transform="translate(7.34 27.765)">
              <path id="Trazado_22282" data-name="Trazado 22282" d="M16.847,23.544A1.175,1.175,0,0,0,15.6,22.3H7.144A1.175,1.175,0,0,0,5.9,23.544v9.081a1.175,1.175,0,0,0,1.244,1.244H15.6a1.175,1.175,0,0,0,1.244-1.244Zm-2.488,7.713H8.388V24.664h5.971Z" transform="translate(-5.9 -22.3)"/>
            </g>
            <g id="Grupo_4431" data-name="Grupo 4431" transform="translate(7.34 44.435)">
              <path id="Trazado_22283" data-name="Trazado 22283" d="M16.847,36.944A1.175,1.175,0,0,0,15.6,35.7H7.144A1.175,1.175,0,0,0,5.9,36.944v9.081a1.175,1.175,0,0,0,1.244,1.244H15.6a1.175,1.175,0,0,0,1.244-1.244Zm-2.488,7.837H8.388V38.188h5.971Z" transform="translate(-5.9 -35.7)"/>
            </g>
            <g id="Grupo_4432" data-name="Grupo 4432" transform="translate(7.34 61.229)">
              <path id="Trazado_22284" data-name="Trazado 22284" d="M15.6,49.2H7.144A1.175,1.175,0,0,0,5.9,50.444v9.081a1.175,1.175,0,0,0,1.244,1.244H15.6a1.175,1.175,0,0,0,1.244-1.244V50.444A1.247,1.247,0,0,0,15.6,49.2Zm-1.244,9.081H8.388V51.688h5.971Z" transform="translate(-5.9 -49.2)"/>
            </g>
            <g id="Grupo_4434" data-name="Grupo 4434" transform="translate(20.526 32.244)">
              <path id="Trazado_22286" data-name="Trazado 22286" d="M36.777,27.144A1.175,1.175,0,0,0,35.533,25.9H17.744a1.244,1.244,0,0,0,0,2.488H35.533A1.247,1.247,0,0,0,36.777,27.144Z" transform="translate(-16.5 -25.9)"/>
            </g>
            <g id="Grupo_4435" data-name="Grupo 4435" transform="translate(20.401 49.038)">
              <path id="Trazado_22287" data-name="Trazado 22287" d="M27.969,39.4H17.644a1.244,1.244,0,1,0,0,2.488H27.969a1.175,1.175,0,0,0,1.244-1.244A1.247,1.247,0,0,0,27.969,39.4Z" transform="translate(-16.4 -39.4)"/>
            </g>
            <g id="Grupo_4436" data-name="Grupo 4436" transform="translate(19.655 65.707)">
              <path id="Trazado_22288" data-name="Trazado 22288" d="M15.8,54.044a1.175,1.175,0,0,0,1.244,1.244h16.3a1.244,1.244,0,1,0,0-2.488h-16.3A1.338,1.338,0,0,0,15.8,54.044Z" transform="translate(-15.8 -52.8)"/>
            </g>
          </g>
        </g>
      </g>
      <g id="advertencia_1_" data-name="advertencia (1)" transform="translate(157.805 62.59)">
        <g id="Grupo_4448" data-name="Grupo 4448" transform="translate(0 20.882)">
          <path id="Trazado_22298" data-name="Trazado 22298" d="M220.276,333.382a2.051,2.051,0,1,0,0,4.1,2.052,2.052,0,0,0,0-4.1Z" transform="translate(-200.297 -307.709)" fill="#5bc5f2"/>
          <path id="Trazado_22299" data-name="Trazado 22299" d="M38.986,53.829a7.012,7.012,0,0,0,.016-7.1L26.139,24.455a7.087,7.087,0,0,0-12.3-.008L.954,46.748A7.114,7.114,0,0,0,7.115,57.41H32.809A7.074,7.074,0,0,0,38.986,53.829Zm-2.793-1.61A3.882,3.882,0,0,1,32.8,54.182H7.107A3.829,3.829,0,0,1,3.755,52.26a3.887,3.887,0,0,1-.008-3.918l12.88-22.293a3.868,3.868,0,0,1,6.719.008L36.218,48.35A3.835,3.835,0,0,1,36.193,52.219Z" transform="translate(0 -20.882)" fill="#5bc5f2"/>
          <path id="Trazado_22300" data-name="Trazado 22300" d="M219.309,157.234a2.231,2.231,0,0,0-1.583,2.24c.049.648.09,1.3.139,1.953.139,2.47.279,4.89.418,7.36a1.5,1.5,0,0,0,1.534,1.444,1.534,1.534,0,0,0,1.534-1.493c0-.509,0-.976.049-1.493.09-1.584.189-3.167.279-4.75.049-1.026.139-2.051.189-3.077a2.534,2.534,0,0,0-.189-1.026A2.056,2.056,0,0,0,219.309,157.234Z" transform="translate(-199.838 -145.974)" fill="#5bc5f2"/>
        </g>
      </g>
    </g>
  </g>
</svg>
